<?xml version="1.0" encoding="UTF-8" standalone="no"?><svg xmlns="http://www.w3.org/2000/svg" xmlns:xlink="http://www.w3.org/1999/xlink" contentStyleType="text/css" height="550px" preserveAspectRatio="none" style="width:1542px;height:550px;background:#FFFFFF;" version="1.1" viewBox="0 0 1542 550" width="1542px" zoomAndPan="magnify"><defs/><g><rect fill="none" height="26.2969" id="_title" style="stroke:none;stroke-width:1.0;" width="297" x="615.755" y="5"/><text fill="#000000" font-family="sans-serif" font-size="14" font-weight="bold" lengthAdjust="spacing" textLength="287" x="620.755" y="22.9951">Consensus Building Process Pattern</text><!--MD5=[0510db1eaa038c1d2243067210c0dbc2]
class Stakeholder1--><g id="elem_Stakeholder1"><rect codeLine="5" fill="#F1F1F1" height="64.2969" id="Stakeholder1" rx="2.5" ry="2.5" style="stroke:#181818;stroke-width:0.5;" width="254" x="761.51" y="44.2969"/><ellipse cx="838.26" cy="60.2969" fill="#ADD1B2" rx="11" ry="11" style="stroke:#181818;stroke-width:1.0;"/><path d="M841.2288,65.9375 Q840.6506,66.2344 840.01,66.375 Q839.3694,66.5313 838.6663,66.5313 Q836.1663,66.5313 834.8381,64.8906 Q833.5256,63.2344 833.5256,60.1094 Q833.5256,56.9844 834.8381,55.3281 Q836.1663,53.6719 838.6663,53.6719 Q839.3694,53.6719 840.01,53.8281 Q840.6663,53.9844 841.2288,54.2813 L841.2288,57 Q840.6038,56.4219 840.01,56.1563 Q839.4163,55.875 838.7913,55.875 Q837.4475,55.875 836.76,56.9531 Q836.0725,58.0156 836.0725,60.1094 Q836.0725,62.2031 836.76,63.2813 Q837.4475,64.3438 838.7913,64.3438 Q839.4163,64.3438 840.01,64.0781 Q840.6038,63.7969 841.2288,63.2188 L841.2288,65.9375 Z " fill="#000000"/><text fill="#000000" font-family="sans-serif" font-size="14" lengthAdjust="spacing" textLength="92" x="858.76" y="65.1436">Stakeholder1</text><line style="stroke:#181818;stroke-width:0.5;" x1="762.51" x2="1014.51" y1="76.2969" y2="76.2969"/><line style="stroke:#181818;stroke-width:0.5;" x1="762.51" x2="1014.51" y1="84.2969" y2="84.2969"/><ellipse cx="772.51" cy="97.9453" fill="#84BE84" rx="3" ry="3" style="stroke:#038048;stroke-width:1.0;"/><text fill="#000000" font-family="sans-serif" font-size="14" lengthAdjust="spacing" textLength="228" x="781.51" y="101.292">inputSpecification(): Specification</text></g><!--MD5=[1413f5515a324c8100a70ebdaa0e9003]
class Stakeholder2--><g id="elem_Stakeholder2"><rect codeLine="8" fill="#F1F1F1" height="64.2969" id="Stakeholder2" rx="2.5" ry="2.5" style="stroke:#181818;stroke-width:0.5;" width="254" x="543.51" y="479.2969"/><ellipse cx="620.26" cy="495.2969" fill="#ADD1B2" rx="11" ry="11" style="stroke:#181818;stroke-width:1.0;"/><path d="M623.2288,500.9375 Q622.6506,501.2344 622.01,501.375 Q621.3694,501.5313 620.6663,501.5313 Q618.1663,501.5313 616.8381,499.8906 Q615.5256,498.2344 615.5256,495.1094 Q615.5256,491.9844 616.8381,490.3281 Q618.1663,488.6719 620.6663,488.6719 Q621.3694,488.6719 622.01,488.8281 Q622.6663,488.9844 623.2288,489.2813 L623.2288,492 Q622.6038,491.4219 622.01,491.1563 Q621.4163,490.875 620.7913,490.875 Q619.4475,490.875 618.76,491.9531 Q618.0725,493.0156 618.0725,495.1094 Q618.0725,497.2031 618.76,498.2813 Q619.4475,499.3438 620.7913,499.3438 Q621.4163,499.3438 622.01,499.0781 Q622.6038,498.7969 623.2288,498.2188 L623.2288,500.9375 Z " fill="#000000"/><text fill="#000000" font-family="sans-serif" font-size="14" lengthAdjust="spacing" textLength="92" x="640.76" y="500.1436">Stakeholder2</text><line style="stroke:#181818;stroke-width:0.5;" x1="544.51" x2="796.51" y1="511.2969" y2="511.2969"/><line style="stroke:#181818;stroke-width:0.5;" x1="544.51" x2="796.51" y1="519.2969" y2="519.2969"/><ellipse cx="554.51" cy="532.9453" fill="#84BE84" rx="3" ry="3" style="stroke:#038048;stroke-width:1.0;"/><text fill="#000000" font-family="sans-serif" font-size="14" lengthAdjust="spacing" textLength="228" x="563.51" y="536.292">inputSpecification(): Specification</text></g><!--MD5=[7bc5716ff34e8b57d97376709b158217]
class Mediator--><g id="elem_Mediator"><rect codeLine="11" fill="#F1F1F1" height="64.2969" id="Mediator" rx="2.5" ry="2.5" style="stroke:#181818;stroke-width:0.5;" width="525" x="381.01" y="185.2969"/><ellipse cx="609.26" cy="201.2969" fill="#ADD1B2" rx="11" ry="11" style="stroke:#181818;stroke-width:1.0;"/><path d="M612.2288,206.9375 Q611.6506,207.2344 611.01,207.375 Q610.3694,207.5313 609.6663,207.5313 Q607.1663,207.5313 605.8381,205.8906 Q604.5256,204.2344 604.5256,201.1094 Q604.5256,197.9844 605.8381,196.3281 Q607.1663,194.6719 609.6663,194.6719 Q610.3694,194.6719 611.01,194.8281 Q611.6663,194.9844 612.2288,195.2813 L612.2288,198 Q611.6038,197.4219 611.01,197.1563 Q610.4163,196.875 609.7913,196.875 Q608.4475,196.875 607.76,197.9531 Q607.0725,199.0156 607.0725,201.1094 Q607.0725,203.2031 607.76,204.2813 Q608.4475,205.3438 609.7913,205.3438 Q610.4163,205.3438 611.01,205.0781 Q611.6038,204.7969 612.2288,204.2188 L612.2288,206.9375 Z " fill="#000000"/><text fill="#000000" font-family="sans-serif" font-size="14" lengthAdjust="spacing" textLength="60" x="629.76" y="206.1436">Mediator</text><line style="stroke:#181818;stroke-width:0.5;" x1="382.01" x2="905.01" y1="217.2969" y2="217.2969"/><line style="stroke:#181818;stroke-width:0.5;" x1="382.01" x2="905.01" y1="225.2969" y2="225.2969"/><ellipse cx="392.01" cy="238.9453" fill="#84BE84" rx="3" ry="3" style="stroke:#038048;stroke-width:1.0;"/><text fill="#000000" font-family="sans-serif" font-size="14" lengthAdjust="spacing" textLength="499" x="401.01" y="242.292">mediateConflict(spec1: Specification, spec2: Specification): Specification</text></g><!--MD5=[fee662a292a0353a69bd162820bae93b]
entity User--><g id="elem_User"><ellipse cx="1093.51" cy="334.7969" fill="#F1F1F1" rx="8" ry="8" style="stroke:#181818;stroke-width:0.5;"/><path d="M1093.51,342.7969 L1093.51,369.7969 M1080.51,350.7969 L1106.51,350.7969 M1093.51,369.7969 L1080.51,384.7969 M1093.51,369.7969 L1106.51,384.7969 " fill="none" style="stroke:#181818;stroke-width:0.5;"/><text fill="#000000" font-family="sans-serif" font-size="14" lengthAdjust="spacing" textLength="32" x="1077.51" y="399.292">User</text></g><!--MD5=[23b070a85b44fe26eaa5567335f7ec52]
link User to Stakeholder1--><g id="link_User_Stakeholder1"><path codeLine="15" d="M1109.61,362.1969 C1157.17,357.9569 1296.72,338.0969 1345.51,249.2969 C1359.21,224.3669 1359.21,210.2269 1345.51,185.2969 C1314.17,128.2569 1144.16,100.3569 1020.64,87.4369 " fill="none" id="User-to-Stakeholder1" style="stroke:#181818;stroke-width:1.0;"/><polygon fill="#181818" points="1015.53,86.9069,1024.0706,91.8117,1020.5035,87.4214,1024.8938,83.8542,1015.53,86.9069" style="stroke:#181818;stroke-width:1.0;"/><text fill="#000000" font-family="sans-serif" font-size="13" lengthAdjust="spacing" textLength="178" x="1356.51" y="221.8638">Requests specification input</text></g><!--MD5=[1c1490dd1173df54fac9ba7e1686b6f6]
link Stakeholder1 to User--><g id="link_Stakeholder1_User"><path codeLine="17" d="M1015.64,87.0469 C1089.4,95.5369 1172.39,110.9669 1196.51,138.2969 C1243.07,191.0569 1241.34,235.1569 1206.51,296.2969 C1186.83,330.8569 1141.53,349.4169 1114.65,357.7469 " fill="none" id="Stakeholder1-to-User" style="stroke:#181818;stroke-width:1.0;"/><polygon fill="#181818" points="1109.53,359.2769,1119.2981,360.5354,1114.3211,357.8467,1117.0098,352.8697,1109.53,359.2769" style="stroke:#181818;stroke-width:1.0;"/><text fill="#000000" font-family="sans-serif" font-size="13" lengthAdjust="spacing" textLength="90" x="1232.51" y="221.8638">Provides input</text></g><!--MD5=[3ba3accbd1f4ad29a6fd8725f5d080e2]
link User to Stakeholder2--><g id="link_User_Stakeholder2"><path codeLine="16" d="M1077.08,379.2969 C1066.9,387.2469 1053.19,396.7069 1039.51,402.2969 C968.9,431.1769 943.2,409.1369 870.51,432.2969 C853.65,437.6669 850.82,442.4269 834.51,449.2969 C811.64,458.9269 786.67,468.6269 763.26,477.3669 " fill="none" id="User-to-Stakeholder2" style="stroke:#181818;stroke-width:1.0;"/><polygon fill="#181818" points="758.29,479.2169,768.1199,479.8284,762.9763,477.4738,765.3309,472.3303,758.29,479.2169" style="stroke:#181818;stroke-width:1.0;"/><text fill="#000000" font-family="sans-serif" font-size="13" lengthAdjust="spacing" textLength="178" x="871.51" y="445.3638">Requests specification input</text></g><!--MD5=[4096a125a6c9e217f5cfdc272e5a8c27]
link Stakeholder2 to User--><g id="link_Stakeholder2_User"><path codeLine="18" d="M797.57,502.8769 C893.36,494.9769 1014.79,479.2969 1054.51,449.2969 C1068.12,439.0269 1077.14,422.8469 1083.05,407.4269 " fill="none" id="Stakeholder2-to-User" style="stroke:#181818;stroke-width:1.0;"/><polygon fill="#181818" points="1084.78,402.6669,1077.9313,409.7447,1083.0621,407.3625,1085.4443,412.4933,1084.78,402.6669" style="stroke:#181818;stroke-width:1.0;"/><text fill="#000000" font-family="sans-serif" font-size="13" lengthAdjust="spacing" textLength="90" x="1070.51" y="445.3638">Provides input</text></g><!--MD5=[a0b649044d3ce4c8a29e630f1b21a1f9]
link User to Mediator--><g id="link_User_Mediator"><path codeLine="19" d="M1084.98,326.2869 C1079.18,309.3869 1069.71,290.6569 1054.51,279.2969 C1029.36,260.5069 973.79,247.4369 911.4,238.3769 " fill="none" id="User-to-Mediator" style="stroke:#181818;stroke-width:1.0;"/><polygon fill="#181818" points="906.12,237.6169,914.4702,242.8393,911.0706,238.318,915.592,234.9184,906.12,237.6169" style="stroke:#181818;stroke-width:1.0;"/><text fill="#000000" font-family="sans-serif" font-size="13" lengthAdjust="spacing" textLength="127" x="1070.51" y="292.3638">Requests mediation</text></g><!--MD5=[859f2c1e7fd0d4a4a020e163d1329c05]
link Mediator to User--><g id="link_Mediator_User"><path codeLine="28" d="M739.12,249.3869 C764.26,258.3269 791.15,268.5769 815.51,279.2969 C830.25,285.7869 832.23,291.2069 847.51,296.2969 C929.45,323.6069 959.24,294.4369 1039.51,326.2969 C1051.53,331.0669 1063.53,338.9069 1073.15,346.1369 " fill="none" id="Mediator-to-User" style="stroke:#181818;stroke-width:1.0;"/><polygon fill="#181818" points="1077.13,349.1869,1072.4382,340.5274,1073.1679,346.1369,1067.5583,346.8666,1077.13,349.1869" style="stroke:#181818;stroke-width:1.0;"/><text fill="#000000" font-family="sans-serif" font-size="13" lengthAdjust="spacing" textLength="197" x="848.51" y="292.3638">Returns mediated specification</text></g><!--MD5=[a4969c7b0407ed44ac969c629785c918]
link Mediator to Stakeholder1--><g id="link_Mediator_Stakeholder1"><path codeLine="20" d="M685.48,185.1369 C706.56,170.1269 732.82,152.3669 757.51,138.2969 C774.69,128.5069 793.71,118.9669 811.81,110.4369 " fill="none" id="Mediator-to-Stakeholder1" style="stroke:#181818;stroke-width:1.0;"/><polygon fill="#181818" points="816.39,108.2969,806.5428,108.4798,811.8594,110.4121,809.9272,115.7287,816.39,108.2969" style="stroke:#181818;stroke-width:1.0;"/><text fill="#000000" font-family="sans-serif" font-size="13" lengthAdjust="spacing" textLength="214" x="758.51" y="151.3638">Receives conflicting specifications</text></g><!--MD5=[1d99a5eeda6966bba6d613142de6fe30]
link Stakeholder1 to Mediator--><g id="link_Stakeholder1_Mediator"><path codeLine="22" d="M761.43,81.6469 C598.32,88.5669 332.64,104.8669 302.51,138.2969 C284.26,158.5469 320.76,174.1869 375.85,185.9669 " fill="none" id="Stakeholder1-to-Mediator" style="stroke:#181818;stroke-width:1.0;"/><polygon fill="#181818" points="380.89,187.0169,372.8876,181.2756,375.9938,186.0034,371.266,189.1095,380.89,187.0169" style="stroke:#181818;stroke-width:1.0;"/><text fill="#000000" font-family="sans-serif" font-size="13" lengthAdjust="spacing" textLength="154" x="303.51" y="151.3638">Discusses requirements</text></g><!--MD5=[a4969c7b0407ed44ac969c629785c918]
link Mediator to Stakeholder1--><g id="link_Mediator_Stakeholder1"><path codeLine="24" d="M906.12,188.9769 C939.15,180.5769 965.57,169.6169 977.51,155.2969 C990.66,139.5269 979.98,124.1869 962.07,111.3369 " fill="none" id="Mediator-to-Stakeholder1-1" style="stroke:#181818;stroke-width:1.0;"/><polygon fill="#181818" points="957.89,108.4669,963.0538,116.8535,962.0148,111.2929,967.5754,110.2538,957.89,108.4669" style="stroke:#181818;stroke-width:1.0;"/><text fill="#000000" font-family="sans-serif" font-size="13" lengthAdjust="spacing" textLength="204" x="983.51" y="151.3638">Proposes compromise solutions</text></g><!--MD5=[1d99a5eeda6966bba6d613142de6fe30]
link Stakeholder1 to Mediator--><g id="link_Stakeholder1_Mediator"><path codeLine="26" d="M761.28,80.3369 C662.89,85.6869 538.13,100.0769 505.51,138.2969 C490.09,156.3769 500.77,171.1369 521.71,182.7569 " fill="none" id="Stakeholder1-to-Mediator-1" style="stroke:#181818;stroke-width:1.0;"/><polygon fill="#181818" points="526.32,185.1869,520.2156,177.4579,521.8945,182.8599,516.4925,184.5388,526.32,185.1869" style="stroke:#181818;stroke-width:1.0;"/><text fill="#000000" font-family="sans-serif" font-size="13" lengthAdjust="spacing" textLength="217" x="506.51" y="151.3638">Evaluates and prioritizes solutions</text></g><!--MD5=[13a192e51b5031a6e05d0de5257f8945]
link Mediator to Stakeholder2--><g id="link_Mediator_Stakeholder2"><path codeLine="21" d="M689.71,249.5069 C713.61,268.5569 740.47,295.1969 753.51,326.2969 C766.58,357.4469 764.38,370.3169 753.51,402.2969 C744.17,429.7969 724.69,455.7669 706.95,475.3469 " fill="none" id="Mediator-to-Stakeholder2" style="stroke:#181818;stroke-width:1.0;"/><polygon fill="#181818" points="703.42,479.1769,712.4543,475.2549,706.8025,475.4947,706.5627,469.8429,703.42,479.1769" style="stroke:#181818;stroke-width:1.0;"/><text fill="#000000" font-family="sans-serif" font-size="13" lengthAdjust="spacing" textLength="214" x="763.51" y="368.8638">Receives conflicting specifications</text></g><!--MD5=[a5502bdf0275ff117f656d4756cc63ae]
link Stakeholder2 to Mediator--><g id="link_Stakeholder2_Mediator"><path codeLine="23" d="M543.09,486.4869 C456.76,467.4569 353.78,438.0969 327.51,402.2969 C307.53,375.0569 307.87,353.7769 327.51,326.2969 C352.54,291.2869 389.63,267.4969 429.67,251.3769 " fill="none" id="Stakeholder2-to-Mediator" style="stroke:#181818;stroke-width:1.0;"/><polygon fill="#181818" points="434.57,249.4469,424.7307,249.0129,429.9159,251.2743,427.6545,256.4594,434.57,249.4469" style="stroke:#181818;stroke-width:1.0;"/><text fill="#000000" font-family="sans-serif" font-size="13" lengthAdjust="spacing" textLength="154" x="328.51" y="368.8638">Discusses requirements</text></g><!--MD5=[13a192e51b5031a6e05d0de5257f8945]
link Mediator to Stakeholder2--><g id="link_Mediator_Stakeholder2"><path codeLine="25" d="M380.77,228.5869 C199.26,245.5269 6,289.4469 99.51,402.2969 C154.1,468.1769 387.01,494.1669 537.98,504.2069 " fill="none" id="Mediator-to-Stakeholder2-1" style="stroke:#181818;stroke-width:1.0;"/><polygon fill="#181818" points="543.32,504.5569,534.5895,499.9986,538.3299,504.2423,534.0862,507.9827,543.32,504.5569" style="stroke:#181818;stroke-width:1.0;"/><text fill="#000000" font-family="sans-serif" font-size="13" lengthAdjust="spacing" textLength="204" x="100.51" y="368.8638">Proposes compromise solutions</text></g><!--MD5=[a5502bdf0275ff117f656d4756cc63ae]
link Stakeholder2 to Mediator--><g id="link_Stakeholder2_Mediator"><path codeLine="27" d="M605.22,479.1869 C575.43,461.2369 543.14,435.5569 526.51,402.2969 C511.41,372.0869 512.97,357.2369 526.51,326.2969 C539.61,296.3769 565.55,271.0669 589.68,252.4869 " fill="none" id="Stakeholder2-to-Mediator-1" style="stroke:#181818;stroke-width:1.0;"/><polygon fill="#181818" points="593.84,249.3269,584.2489,251.5653,589.852,252.3429,589.0745,257.946,593.84,249.3269" style="stroke:#181818;stroke-width:1.0;"/><text fill="#000000" font-family="sans-serif" font-size="13" lengthAdjust="spacing" textLength="217" x="527.51" y="368.8638">Evaluates and prioritizes solutions</text></g><!--MD5=[b9f556ea2c4cebda95eb1771c6a8754a]
@startuml
!define RECTANGLE class
!define USER actor
title Consensus Building Process Pattern
allowmixing
RECTANGLE Stakeholder1 {
  +inputSpecification(): Specification
}
RECTANGLE Stakeholder2 {
  +inputSpecification(): Specification
}
RECTANGLE Mediator {
  +mediateConflict(spec1: Specification, spec2: Specification): Specification
}
USER User
User - -> Stakeholder1: Requests specification input
User - -> Stakeholder2: Requests specification input
Stakeholder1 - -> User : Provides input
Stakeholder2 - -> User : Provides input
User - -> Mediator: Requests mediation
Mediator - -> Stakeholder1: Receives conflicting specifications
Mediator - -> Stakeholder2: Receives conflicting specifications
Stakeholder1 - -> Mediator: Discusses requirements
Stakeholder2 - -> Mediator: Discusses requirements
Mediator - -> Stakeholder1: Proposes compromise solutions
Mediator - -> Stakeholder2: Proposes compromise solutions
Stakeholder1 - -> Mediator: Evaluates and prioritizes solutions
Stakeholder2 - -> Mediator: Evaluates and prioritizes solutions
Mediator - -> User: Returns mediated specification
@enduml

@startuml
title Consensus Building Process Pattern
allowmixing
class Stakeholder1 {
  +inputSpecification(): Specification
}
class Stakeholder2 {
  +inputSpecification(): Specification
}
class Mediator {
  +mediateConflict(spec1: Specification, spec2: Specification): Specification
}
actor User
User - -> Stakeholder1: Requests specification input
User - -> Stakeholder2: Requests specification input
Stakeholder1 - -> User : Provides input
Stakeholder2 - -> User : Provides input
User - -> Mediator: Requests mediation
Mediator - -> Stakeholder1: Receives conflicting specifications
Mediator - -> Stakeholder2: Receives conflicting specifications
Stakeholder1 - -> Mediator: Discusses requirements
Stakeholder2 - -> Mediator: Discusses requirements
Mediator - -> Stakeholder1: Proposes compromise solutions
Mediator - -> Stakeholder2: Proposes compromise solutions
Stakeholder1 - -> Mediator: Evaluates and prioritizes solutions
Stakeholder2 - -> Mediator: Evaluates and prioritizes solutions
Mediator - -> User: Returns mediated specification
@enduml

PlantUML version 1.2022.7(Mon Aug 22 17:01:30 UTC 2022)
(GPL source distribution)
Java Runtime: OpenJDK Runtime Environment
JVM: OpenJDK 64-Bit Server VM
Default Encoding: UTF-8
Language: en
Country: null
--></g></svg>