<?xml version="1.0" encoding="UTF-8" standalone="no"?><svg xmlns="http://www.w3.org/2000/svg" xmlns:xlink="http://www.w3.org/1999/xlink" contentStyleType="text/css" height="625px" preserveAspectRatio="none" style="width:846px;height:625px;background:#FFFFFF;" version="1.1" viewBox="0 0 846 625" width="846px" zoomAndPan="magnify"><defs/><g><rect fill="none" height="26.2969" id="_title" style="stroke:none;stroke-width:1.0;" width="222" x="305.25" y="5"/><text fill="#000000" font-family="sans-serif" font-size="14" font-weight="bold" lengthAdjust="spacing" textLength="212" x="310.25" y="22.9951">Common Personality Traits</text><!--MD5=[7421f545a0d8420c5bec41e74b387d9c]
class Employee--><g id="elem_Employee"><rect codeLine="3" fill="#F1F1F1" height="96.8906" id="Employee" rx="2.5" ry="2.5" style="stroke:#181818;stroke-width:0.5;" width="157" x="324" y="44.2969"/><ellipse cx="364.65" cy="60.2969" fill="#ADD1B2" rx="11" ry="11" style="stroke:#181818;stroke-width:1.0;"/><path d="M367.6188,65.9375 Q367.0406,66.2344 366.4,66.375 Q365.7594,66.5313 365.0563,66.5313 Q362.5563,66.5313 361.2281,64.8906 Q359.9156,63.2344 359.9156,60.1094 Q359.9156,56.9844 361.2281,55.3281 Q362.5563,53.6719 365.0563,53.6719 Q365.7594,53.6719 366.4,53.8281 Q367.0563,53.9844 367.6188,54.2813 L367.6188,57 Q366.9938,56.4219 366.4,56.1563 Q365.8063,55.875 365.1813,55.875 Q363.8375,55.875 363.15,56.9531 Q362.4625,58.0156 362.4625,60.1094 Q362.4625,62.2031 363.15,63.2813 Q363.8375,64.3438 365.1813,64.3438 Q365.8063,64.3438 366.4,64.0781 Q366.9938,63.7969 367.6188,63.2188 L367.6188,65.9375 Z " fill="#000000"/><text fill="#000000" font-family="sans-serif" font-size="14" lengthAdjust="spacing" textLength="68" x="384.35" y="65.1436">Employee</text><line style="stroke:#181818;stroke-width:0.5;" x1="325" x2="480" y1="76.2969" y2="76.2969"/><rect fill="none" height="6" style="stroke:#C82930;stroke-width:1.0;" width="6" x="332" y="86.9453"/><text fill="#000000" font-family="sans-serif" font-size="14" lengthAdjust="spacing" textLength="88" x="344" y="93.292">name: String</text><rect fill="none" height="6" style="stroke:#C82930;stroke-width:1.0;" width="6" x="332" y="103.2422"/><text fill="#000000" font-family="sans-serif" font-size="14" lengthAdjust="spacing" textLength="131" x="344" y="109.5889">employeeID: String</text><rect fill="none" height="6" style="stroke:#C82930;stroke-width:1.0;" width="6" x="332" y="119.5391"/><text fill="#000000" font-family="sans-serif" font-size="14" lengthAdjust="spacing" textLength="130" x="344" y="125.8857">department: String</text><line style="stroke:#181818;stroke-width:0.5;" x1="325" x2="480" y1="133.1875" y2="133.1875"/></g><!--MD5=[d562fb955a7bb746dda99c876ac98d43]
class SoftwareDeveloper--><g id="elem_SoftwareDeveloper"><rect codeLine="9" fill="#F1F1F1" height="96.8906" id="SoftwareDeveloper" rx="2.5" ry="2.5" style="stroke:#181818;stroke-width:0.5;" width="382" x="211.5" y="201.2969"/><ellipse cx="332.75" cy="217.2969" fill="#ADD1B2" rx="11" ry="11" style="stroke:#181818;stroke-width:1.0;"/><path d="M335.7188,222.9375 Q335.1406,223.2344 334.5,223.375 Q333.8594,223.5313 333.1563,223.5313 Q330.6563,223.5313 329.3281,221.8906 Q328.0156,220.2344 328.0156,217.1094 Q328.0156,213.9844 329.3281,212.3281 Q330.6563,210.6719 333.1563,210.6719 Q333.8594,210.6719 334.5,210.8281 Q335.1563,210.9844 335.7188,211.2813 L335.7188,214 Q335.0938,213.4219 334.5,213.1563 Q333.9063,212.875 333.2813,212.875 Q331.9375,212.875 331.25,213.9531 Q330.5625,215.0156 330.5625,217.1094 Q330.5625,219.2031 331.25,220.2813 Q331.9375,221.3438 333.2813,221.3438 Q333.9063,221.3438 334.5,221.0781 Q335.0938,220.7969 335.7188,220.2188 L335.7188,222.9375 Z " fill="#000000"/><text fill="#000000" font-family="sans-serif" font-size="14" lengthAdjust="spacing" textLength="131" x="353.25" y="222.1436">SoftwareDeveloper</text><line style="stroke:#181818;stroke-width:0.5;" x1="212.5" x2="592.5" y1="233.2969" y2="233.2969"/><rect fill="none" height="6" style="stroke:#C82930;stroke-width:1.0;" width="6" x="219.5" y="243.9453"/><text fill="#000000" font-family="sans-serif" font-size="14" lengthAdjust="spacing" textLength="273" x="231.5" y="250.292">problemSolvingSkill: ProblemSolvingSkill</text><rect fill="none" height="6" style="stroke:#C82930;stroke-width:1.0;" width="6" x="219.5" y="260.2422"/><text fill="#000000" font-family="sans-serif" font-size="14" lengthAdjust="spacing" textLength="356" x="231.5" y="266.5889">resilienceAndAdaptability: ResilienceAndAdaptability</text><rect fill="none" height="6" style="stroke:#C82930;stroke-width:1.0;" width="6" x="219.5" y="276.5391"/><text fill="#000000" font-family="sans-serif" font-size="14" lengthAdjust="spacing" textLength="243" x="231.5" y="282.8857">goodTeamPlayer: GoodTeamPlayer</text><line style="stroke:#181818;stroke-width:0.5;" x1="212.5" x2="592.5" y1="290.1875" y2="290.1875"/></g><!--MD5=[04ed9f4709d4cf88e55b0517f9c7c358]
class ProblemSolvingSkill--><g id="elem_ProblemSolvingSkill"><rect codeLine="15" fill="#F1F1F1" height="259.8594" id="ProblemSolvingSkill" rx="2.5" ry="2.5" style="stroke:#181818;stroke-width:0.5;" width="235" x="7" y="358.2969"/><ellipse cx="54.25" cy="374.2969" fill="#ADD1B2" rx="11" ry="11" style="stroke:#181818;stroke-width:1.0;"/><path d="M57.2188,379.9375 Q56.6406,380.2344 56,380.375 Q55.3594,380.5313 54.6563,380.5313 Q52.1563,380.5313 50.8281,378.8906 Q49.5156,377.2344 49.5156,374.1094 Q49.5156,370.9844 50.8281,369.3281 Q52.1563,367.6719 54.6563,367.6719 Q55.3594,367.6719 56,367.8281 Q56.6563,367.9844 57.2188,368.2813 L57.2188,371 Q56.5938,370.4219 56,370.1563 Q55.4063,369.875 54.7813,369.875 Q53.4375,369.875 52.75,370.9531 Q52.0625,372.0156 52.0625,374.1094 Q52.0625,376.2031 52.75,377.2813 Q53.4375,378.3438 54.7813,378.3438 Q55.4063,378.3438 56,378.0781 Q56.5938,377.7969 57.2188,377.2188 L57.2188,379.9375 Z " fill="#000000"/><text fill="#000000" font-family="sans-serif" font-size="14" lengthAdjust="spacing" textLength="132" x="74.75" y="379.1436">ProblemSolvingSkill</text><line style="stroke:#181818;stroke-width:0.5;" x1="8" x2="241" y1="390.2969" y2="390.2969"/><rect fill="none" height="6" style="stroke:#C82930;stroke-width:1.0;" width="6" x="15" y="400.9453"/><text fill="#000000" font-family="sans-serif" font-size="14" lengthAdjust="spacing" textLength="170" x="27" y="407.292">analyticalThinking: String</text><rect fill="none" height="6" style="stroke:#C82930;stroke-width:1.0;" width="6" x="15" y="417.2422"/><text fill="#000000" font-family="sans-serif" font-size="14" lengthAdjust="spacing" textLength="166" x="27" y="423.5889">criticalReasoning: String</text><rect fill="none" height="6" style="stroke:#C82930;stroke-width:1.0;" width="6" x="15" y="433.5391"/><text fill="#000000" font-family="sans-serif" font-size="14" lengthAdjust="spacing" textLength="209" x="27" y="439.8857">creativeProblemSolving: String</text><rect fill="none" height="6" style="stroke:#C82930;stroke-width:1.0;" width="6" x="15" y="449.8359"/><text fill="#000000" font-family="sans-serif" font-size="14" lengthAdjust="spacing" textLength="198" x="27" y="456.1826">algorithmicProficiency: String</text><rect fill="none" height="6" style="stroke:#C82930;stroke-width:1.0;" width="6" x="15" y="466.1328"/><text fill="#000000" font-family="sans-serif" font-size="14" lengthAdjust="spacing" textLength="182" x="27" y="472.4795">patternRecognition: String</text><rect fill="none" height="6" style="stroke:#C82930;stroke-width:1.0;" width="6" x="15" y="482.4297"/><text fill="#000000" font-family="sans-serif" font-size="14" lengthAdjust="spacing" textLength="177" x="27" y="488.7764">domainKnowledge: String</text><rect fill="none" height="6" style="stroke:#C82930;stroke-width:1.0;" width="6" x="15" y="498.7266"/><text fill="#000000" font-family="sans-serif" font-size="14" lengthAdjust="spacing" textLength="169" x="27" y="505.0732">collaborativeSkills: String</text><rect fill="none" height="6" style="stroke:#C82930;stroke-width:1.0;" width="6" x="15" y="515.0234"/><text fill="#000000" font-family="sans-serif" font-size="14" lengthAdjust="spacing" textLength="126" x="27" y="521.3701">adaptability: String</text><rect fill="none" height="6" style="stroke:#C82930;stroke-width:1.0;" width="6" x="15" y="531.3203"/><text fill="#000000" font-family="sans-serif" font-size="14" lengthAdjust="spacing" textLength="131" x="27" y="537.667">persistence: String</text><rect fill="none" height="6" style="stroke:#C82930;stroke-width:1.0;" width="6" x="15" y="547.6172"/><text fill="#000000" font-family="sans-serif" font-size="14" lengthAdjust="spacing" textLength="186" x="27" y="553.9639">continuousLearning: String</text><line style="stroke:#181818;stroke-width:0.5;" x1="8" x2="241" y1="561.2656" y2="561.2656"/><ellipse cx="18" cy="574.9141" fill="#84BE84" rx="3" ry="3" style="stroke:#038048;stroke-width:1.0;"/><text fill="#000000" font-family="sans-serif" font-size="14" lengthAdjust="spacing" textLength="156" x="27" y="578.2607">analyzeProblem(): void</text><ellipse cx="18" cy="591.2109" fill="#84BE84" rx="3" ry="3" style="stroke:#038048;stroke-width:1.0;"/><text fill="#000000" font-family="sans-serif" font-size="14" lengthAdjust="spacing" textLength="161" x="27" y="594.5576">proposeSolution(): void</text><ellipse cx="18" cy="607.5078" fill="#84BE84" rx="3" ry="3" style="stroke:#038048;stroke-width:1.0;"/><text fill="#000000" font-family="sans-serif" font-size="14" lengthAdjust="spacing" textLength="161" x="27" y="610.8545">evaluateSolution(): void</text></g><!--MD5=[ac42f31268b12f5a91157fb3c02b1c63]
class ResilienceAndAdaptability--><g id="elem_ResilienceAndAdaptability"><rect codeLine="32" fill="#F1F1F1" height="243.5625" id="ResilienceAndAdaptability" rx="2.5" ry="2.5" style="stroke:#181818;stroke-width:0.5;" width="251" x="277" y="366.2969"/><ellipse cx="311.35" cy="382.2969" fill="#ADD1B2" rx="11" ry="11" style="stroke:#181818;stroke-width:1.0;"/><path d="M314.3188,387.9375 Q313.7406,388.2344 313.1,388.375 Q312.4594,388.5313 311.7563,388.5313 Q309.2563,388.5313 307.9281,386.8906 Q306.6156,385.2344 306.6156,382.1094 Q306.6156,378.9844 307.9281,377.3281 Q309.2563,375.6719 311.7563,375.6719 Q312.4594,375.6719 313.1,375.8281 Q313.7563,375.9844 314.3188,376.2813 L314.3188,379 Q313.6938,378.4219 313.1,378.1563 Q312.5063,377.875 311.8813,377.875 Q310.5375,377.875 309.85,378.9531 Q309.1625,380.0156 309.1625,382.1094 Q309.1625,384.2031 309.85,385.2813 Q310.5375,386.3438 311.8813,386.3438 Q312.5063,386.3438 313.1,386.0781 Q313.6938,385.7969 314.3188,385.2188 L314.3188,387.9375 Z " fill="#000000"/><text fill="#000000" font-family="sans-serif" font-size="14" lengthAdjust="spacing" textLength="176" x="329.65" y="387.1436">ResilienceAndAdaptability</text><line style="stroke:#181818;stroke-width:0.5;" x1="278" x2="527" y1="398.2969" y2="398.2969"/><rect fill="none" height="6" style="stroke:#C82930;stroke-width:1.0;" width="6" x="285" y="408.9453"/><text fill="#000000" font-family="sans-serif" font-size="14" lengthAdjust="spacing" textLength="192" x="297" y="415.292">learningFromFailures: String</text><rect fill="none" height="6" style="stroke:#C82930;stroke-width:1.0;" width="6" x="285" y="425.2422"/><text fill="#000000" font-family="sans-serif" font-size="14" lengthAdjust="spacing" textLength="105" x="297" y="431.5889">flexibility: String</text><rect fill="none" height="6" style="stroke:#C82930;stroke-width:1.0;" width="6" x="285" y="441.5391"/><text fill="#000000" font-family="sans-serif" font-size="14" lengthAdjust="spacing" textLength="196" x="297" y="447.8857">emotionalIntelligence: String</text><rect fill="none" height="6" style="stroke:#C82930;stroke-width:1.0;" width="6" x="285" y="457.8359"/><text fill="#000000" font-family="sans-serif" font-size="14" lengthAdjust="spacing" textLength="170" x="297" y="464.1826">openMindedness: String</text><rect fill="none" height="6" style="stroke:#C82930;stroke-width:1.0;" width="6" x="285" y="474.1328"/><text fill="#000000" font-family="sans-serif" font-size="14" lengthAdjust="spacing" textLength="183" x="297" y="480.4795">stressManagement: String</text><rect fill="none" height="6" style="stroke:#C82930;stroke-width:1.0;" width="6" x="285" y="490.4297"/><text fill="#000000" font-family="sans-serif" font-size="14" lengthAdjust="spacing" textLength="161" x="297" y="496.7764">resourcefulness: String</text><rect fill="none" height="6" style="stroke:#C82930;stroke-width:1.0;" width="6" x="285" y="506.7266"/><text fill="#000000" font-family="sans-serif" font-size="14" lengthAdjust="spacing" textLength="191" x="297" y="513.0732">resilienceToCriticism: String</text><rect fill="none" height="6" style="stroke:#C82930;stroke-width:1.0;" width="6" x="285" y="523.0234"/><text fill="#000000" font-family="sans-serif" font-size="14" lengthAdjust="spacing" textLength="170" x="297" y="529.3701">timeManagement: String</text><rect fill="none" height="6" style="stroke:#C82930;stroke-width:1.0;" width="6" x="285" y="539.3203"/><text fill="#000000" font-family="sans-serif" font-size="14" lengthAdjust="spacing" textLength="225" x="297" y="545.667">adaptabilityToTechnology: String</text><line style="stroke:#181818;stroke-width:0.5;" x1="278" x2="527" y1="552.9688" y2="552.9688"/><ellipse cx="288" cy="566.6172" fill="#84BE84" rx="3" ry="3" style="stroke:#038048;stroke-width:1.0;"/><text fill="#000000" font-family="sans-serif" font-size="14" lengthAdjust="spacing" textLength="134" x="297" y="569.9639">stayResilient(): void</text><ellipse cx="288" cy="582.9141" fill="#84BE84" rx="3" ry="3" style="stroke:#038048;stroke-width:1.0;"/><text fill="#000000" font-family="sans-serif" font-size="14" lengthAdjust="spacing" textLength="162" x="297" y="586.2607">embraceChange(): void</text><ellipse cx="288" cy="599.2109" fill="#84BE84" rx="3" ry="3" style="stroke:#038048;stroke-width:1.0;"/><text fill="#000000" font-family="sans-serif" font-size="14" lengthAdjust="spacing" textLength="147" x="297" y="602.5576">manageStress(): void</text></g><!--MD5=[447ab3642becc7e9e4827810e1321410]
class GoodTeamPlayer--><g id="elem_GoodTeamPlayer"><rect codeLine="48" fill="#F1F1F1" height="259.8594" id="GoodTeamPlayer" rx="2.5" ry="2.5" style="stroke:#181818;stroke-width:0.5;" width="276" x="563.5" y="358.2969"/><ellipse cx="638.25" cy="374.2969" fill="#ADD1B2" rx="11" ry="11" style="stroke:#181818;stroke-width:1.0;"/><path d="M641.2188,379.9375 Q640.6406,380.2344 640,380.375 Q639.3594,380.5313 638.6563,380.5313 Q636.1563,380.5313 634.8281,378.8906 Q633.5156,377.2344 633.5156,374.1094 Q633.5156,370.9844 634.8281,369.3281 Q636.1563,367.6719 638.6563,367.6719 Q639.3594,367.6719 640,367.8281 Q640.6563,367.9844 641.2188,368.2813 L641.2188,371 Q640.5938,370.4219 640,370.1563 Q639.4063,369.875 638.7813,369.875 Q637.4375,369.875 636.75,370.9531 Q636.0625,372.0156 636.0625,374.1094 Q636.0625,376.2031 636.75,377.2813 Q637.4375,378.3438 638.7813,378.3438 Q639.4063,378.3438 640,378.0781 Q640.5938,377.7969 641.2188,377.2188 L641.2188,379.9375 Z " fill="#000000"/><text fill="#000000" font-family="sans-serif" font-size="14" lengthAdjust="spacing" textLength="118" x="658.75" y="379.1436">GoodTeamPlayer</text><line style="stroke:#181818;stroke-width:0.5;" x1="564.5" x2="838.5" y1="390.2969" y2="390.2969"/><rect fill="none" height="6" style="stroke:#C82930;stroke-width:1.0;" width="6" x="571.5" y="400.9453"/><text fill="#000000" font-family="sans-serif" font-size="14" lengthAdjust="spacing" textLength="189" x="583.5" y="407.292">communicationSkills: String</text><rect fill="none" height="6" style="stroke:#C82930;stroke-width:1.0;" width="6" x="571.5" y="417.2422"/><text fill="#000000" font-family="sans-serif" font-size="14" lengthAdjust="spacing" textLength="169" x="583.5" y="423.5889">collaborativeSpirit: String</text><rect fill="none" height="6" style="stroke:#C82930;stroke-width:1.0;" width="6" x="571.5" y="433.5391"/><text fill="#000000" font-family="sans-serif" font-size="14" lengthAdjust="spacing" textLength="172" x="583.5" y="439.8857">conflictResolution: String</text><rect fill="none" height="6" style="stroke:#C82930;stroke-width:1.0;" width="6" x="571.5" y="449.8359"/><text fill="#000000" font-family="sans-serif" font-size="14" lengthAdjust="spacing" textLength="109" x="583.5" y="456.1826">empathy: String</text><rect fill="none" height="6" style="stroke:#C82930;stroke-width:1.0;" width="6" x="571.5" y="466.1328"/><text fill="#000000" font-family="sans-serif" font-size="14" lengthAdjust="spacing" textLength="107" x="583.5" y="472.4795">reliability: String</text><rect fill="none" height="6" style="stroke:#C82930;stroke-width:1.0;" width="6" x="571.5" y="482.4297"/><text fill="#000000" font-family="sans-serif" font-size="14" lengthAdjust="spacing" textLength="181" x="583.5" y="488.7764">leadershipPotential: String</text><rect fill="none" height="6" style="stroke:#C82930;stroke-width:1.0;" width="6" x="571.5" y="498.7266"/><text fill="#000000" font-family="sans-serif" font-size="14" lengthAdjust="spacing" textLength="250" x="583.5" y="505.0732">adaptabilityToTeamDynamics: String</text><rect fill="none" height="6" style="stroke:#C82930;stroke-width:1.0;" width="6" x="571.5" y="515.0234"/><text fill="#000000" font-family="sans-serif" font-size="14" lengthAdjust="spacing" textLength="248" x="583.5" y="521.3701">contributingToTeamSuccess: String</text><rect fill="none" height="6" style="stroke:#C82930;stroke-width:1.0;" width="6" x="571.5" y="531.3203"/><text fill="#000000" font-family="sans-serif" font-size="14" lengthAdjust="spacing" textLength="182" x="583.5" y="537.667">respectForDiversity: String</text><rect fill="none" height="6" style="stroke:#C82930;stroke-width:1.0;" width="6" x="571.5" y="547.6172"/><text fill="#000000" font-family="sans-serif" font-size="14" lengthAdjust="spacing" textLength="202" x="583.5" y="553.9639">constructiveFeedback: String</text><line style="stroke:#181818;stroke-width:0.5;" x1="564.5" x2="838.5" y1="561.2656" y2="561.2656"/><ellipse cx="574.5" cy="574.9141" fill="#84BE84" rx="3" ry="3" style="stroke:#038048;stroke-width:1.0;"/><text fill="#000000" font-family="sans-serif" font-size="14" lengthAdjust="spacing" textLength="227" x="583.5" y="578.2607">fosterPositiveEnvironment(): void</text><ellipse cx="574.5" cy="591.2109" fill="#84BE84" rx="3" ry="3" style="stroke:#038048;stroke-width:1.0;"/><text fill="#000000" font-family="sans-serif" font-size="14" lengthAdjust="spacing" textLength="156" x="583.5" y="594.5576">resolveConflicts(): void</text><ellipse cx="574.5" cy="607.5078" fill="#84BE84" rx="3" ry="3" style="stroke:#038048;stroke-width:1.0;"/><text fill="#000000" font-family="sans-serif" font-size="14" lengthAdjust="spacing" textLength="151" x="583.5" y="610.8545">leadByExample(): void</text></g><!--MD5=[8411dffde1873201756c5ca8efcae65b]
reverse link Employee to SoftwareDeveloper--><g id="link_Employee_SoftwareDeveloper"><path codeLine="65" d="M402.5,161.8669 C402.5,175.1269 402.5,188.7569 402.5,201.1869 " fill="none" id="Employee-backto-SoftwareDeveloper" style="stroke:#181818;stroke-width:1.0;"/><polygon fill="none" points="395.5,161.5669,402.5,141.5669,409.5,161.5669,395.5,161.5669" style="stroke:#181818;stroke-width:1.0;"/></g><!--MD5=[2ce93b03d85eb3dfb810a40aac9c945c]
reverse link SoftwareDeveloper to ProblemSolvingSkill--><g id="link_SoftwareDeveloper_ProblemSolvingSkill"><path codeLine="66" d="M325.25,306.2669 C303.57,322.5269 280.26,340.6869 259.5,358.2969 C253.81,363.1169 248.06,368.1169 242.3,373.2269 " fill="none" id="SoftwareDeveloper-backto-ProblemSolvingSkill" style="stroke:#181818;stroke-width:1.0;"/><polygon fill="#181818" points="335.74,298.4469,328.5385,298.8184,326.1116,305.6088,333.3131,305.2373,335.74,298.4469" style="stroke:#181818;stroke-width:1.0;"/></g><!--MD5=[ae7984fd25a95bf6a43f2f400799ff0f]
reverse link SoftwareDeveloper to ResilienceAndAdaptability--><g id="link_SoftwareDeveloper_ResilienceAndAdaptability"><path codeLine="67" d="M402.5,311.8469 C402.5,328.4969 402.5,347.1369 402.5,365.8869 " fill="none" id="SoftwareDeveloper-backto-ResilienceAndAdaptability" style="stroke:#181818;stroke-width:1.0;"/><polygon fill="#181818" points="402.5,298.3669,398.5,304.3669,402.5,310.3669,406.5,304.3669,402.5,298.3669" style="stroke:#181818;stroke-width:1.0;"/></g><!--MD5=[ed8ff3576a071d6ff24d34075d960ec8]
reverse link SoftwareDeveloper to GoodTeamPlayer--><g id="link_SoftwareDeveloper_GoodTeamPlayer"><path codeLine="68" d="M477.68,306.2869 C499.7,322.8169 523.7,341.1069 545.5,358.2969 C551.29,362.8669 557.19,367.5569 563.13,372.3169 " fill="none" id="SoftwareDeveloper-backto-GoodTeamPlayer" style="stroke:#181818;stroke-width:1.0;"/><polygon fill="#181818" points="467.05,298.3369,469.4605,305.1332,476.6611,305.5221,474.2506,298.7258,467.05,298.3369" style="stroke:#181818;stroke-width:1.0;"/></g><!--MD5=[0498c4fe0248f763640f6ffbf192c3d6]
@startuml
title Common Personality Traits

class Employee {
    - name: String
    - employeeID: String
    - department: String
}

class SoftwareDeveloper {
    - problemSolvingSkill: ProblemSolvingSkill
    - resilienceAndAdaptability: ResilienceAndAdaptability
    - goodTeamPlayer: GoodTeamPlayer
}

class ProblemSolvingSkill {
    - analyticalThinking: String /'The ability to break down complex problems into smaller, manageable components for analysis.'/
    - criticalReasoning: String /'The capacity to evaluate information, arguments, and evidence systematically to make reasoned decisions.'/
    - creativeProblemSolving: String /'The aptitude to explore innovative and unconventional solutions to challenges.'/
    - algorithmicProficiency: String /'Proficiency in designing and implementing algorithms to solve problems efficiently.'/
    - patternRecognition: String /'The capability to recognize patterns and trends within data or code, aiding in problem identification and solution.'/
    - domainKnowledge: String /'Knowledge and understanding of the specific domain or industry in which the software engineer operates, facilitating problem-solving within that context.'/
    - collaborativeSkills: String /'The ability to work effectively in teams, leveraging diverse perspectives and expertise to solve problems collectively.'/
    - adaptability: String /'The readiness to adapt to changing circumstances and requirements, adjusting problem-solving strategies accordingly.'/
    - persistence: String /'The determination to persevere through challenges and setbacks until a satisfactory solution is achieved.'/
    - continuousLearning: String /'The commitment to ongoing learning and professional development, enhancing problem-solving abilities over time.'/
  
    + analyzeProblem(): void
    + proposeSolution(): void
    + evaluateSolution(): void  
}

class ResilienceAndAdaptability {
    - learningFromFailures: String /'The capacity to reflect on setbacks and extract valuable lessons to inform future actions.'/
    - flexibility: String /'The willingness to embrace change and adapt to evolving circumstances.'/
    - emotionalIntelligence: String /' The skill to understand and manage one's own emotions and effectively navigate interpersonal relationships.'/
    - openMindedness: String /'The receptivity to new ideas, perspectives, and feedback.'/
    - stressManagement: String /'The ability to manage stress and maintain composure under pressure.'/
    - resourcefulness: String /'The knack for finding creative solutions and leveraging available resources effectively.'/
    - resilienceToCriticism: String /'The capability to receive constructive criticism positively and use it to improve.'/
    - timeManagement: String /'The skill to prioritize tasks, manage time effectively, and meet deadlines.'/
    - adaptabilityToTechnology: String /'The ability to quickly learn and adapt to new technologies, tools, and methodologies.'/
  
    + stayResilient(): void
    + embraceChange(): void
    + manageStress(): void  
}

class GoodTeamPlayer {
    - communicationSkills: String /'The ability to express ideas clearly and listen actively, facilitating effective communication within the team.'/
    - collaborativeSpirit: String /'A willingness to work cooperatively with team members, fostering a positive and supportive team environment.'/
    - conflictResolution: String /'The skill to resolve conflicts constructively and find mutually acceptable solutions.'/
    - empathy: String /'The capacity to understand and empathize with the perspectives and feelings of others.'/
    - reliability: String /'Consistently delivering high-quality work and meeting commitments to the team and project.'/
    - leadershipPotential: String /'Demonstrating leadership qualities such as initiative, accountability, and the ability to inspire and motivate others.'/
    - adaptabilityToTeamDynamics: String /'The ability to adjust and contribute effectively within different team structures and dynamics.'/
    - contributingToTeamSuccess: String /'A focus on collective goals and contributing positively to the team's success.'/
    - respectForDiversity: String /'Valuing and respecting the diverse backgrounds, perspectives, and contributions of team members.'/
    - constructiveFeedback: String /'Providing and receiving feedback in a constructive and respectful manner to facilitate continuous improvement.'/

    + fosterPositiveEnvironment(): void
    + resolveConflicts(): void
    + leadByExample(): void  
}

Employee <|- - SoftwareDeveloper
SoftwareDeveloper *- - ProblemSolvingSkill
SoftwareDeveloper *- - ResilienceAndAdaptability
SoftwareDeveloper *- - GoodTeamPlayer
@enduml

@startuml
title Common Personality Traits

class Employee {
    - name: String
    - employeeID: String
    - department: String
}

class SoftwareDeveloper {
    - problemSolvingSkill: ProblemSolvingSkill
    - resilienceAndAdaptability: ResilienceAndAdaptability
    - goodTeamPlayer: GoodTeamPlayer
}

class ProblemSolvingSkill {
    - analyticalThinking: String 
    - criticalReasoning: String 
    - creativeProblemSolving: String 
    - algorithmicProficiency: String 
    - patternRecognition: String 
    - domainKnowledge: String 
    - collaborativeSkills: String 
    - adaptability: String 
    - persistence: String 
    - continuousLearning: String 
  
    + analyzeProblem(): void
    + proposeSolution(): void
    + evaluateSolution(): void  
}

class ResilienceAndAdaptability {
    - learningFromFailures: String 
    - flexibility: String 
    - emotionalIntelligence: String 
    - openMindedness: String 
    - stressManagement: String 
    - resourcefulness: String 
    - resilienceToCriticism: String 
    - timeManagement: String 
    - adaptabilityToTechnology: String 
  
    + stayResilient(): void
    + embraceChange(): void
    + manageStress(): void  
}

class GoodTeamPlayer {
    - communicationSkills: String 
    - collaborativeSpirit: String 
    - conflictResolution: String 
    - empathy: String 
    - reliability: String 
    - leadershipPotential: String 
    - adaptabilityToTeamDynamics: String 
    - contributingToTeamSuccess: String 
    - respectForDiversity: String 
    - constructiveFeedback: String 

    + fosterPositiveEnvironment(): void
    + resolveConflicts(): void
    + leadByExample(): void  
}

Employee <|- - SoftwareDeveloper
SoftwareDeveloper *- - ProblemSolvingSkill
SoftwareDeveloper *- - ResilienceAndAdaptability
SoftwareDeveloper *- - GoodTeamPlayer
@enduml

PlantUML version 1.2022.7(Mon Aug 22 17:01:30 UTC 2022)
(GPL source distribution)
Java Runtime: OpenJDK Runtime Environment
JVM: OpenJDK 64-Bit Server VM
Default Encoding: UTF-8
Language: en
Country: null
--></g></svg>