<?xml version="1.0" encoding="UTF-8" standalone="no"?><svg xmlns="http://www.w3.org/2000/svg" xmlns:xlink="http://www.w3.org/1999/xlink" contentStyleType="text/css" height="1207px" preserveAspectRatio="none" style="width:738px;height:1207px;background:#FFFFFF;" version="1.1" viewBox="0 0 738 1207" width="738px" zoomAndPan="magnify"><defs/><g><rect fill="none" height="42.5938" id="_title" style="stroke:none;stroke-width:1.0;" width="394" x="168.25" y="10"/><text fill="#000000" font-family="sans-serif" font-size="14" font-weight="bold" lengthAdjust="spacing" textLength="379" x="173.25" y="27.9951">Web-based Pothole Tracking and Repair System</text><text fill="#000000" font-family="sans-serif" font-size="14" font-weight="bold" lengthAdjust="spacing" textLength="175" x="277.75" y="44.292">Process Flow Diagram</text><line style="stroke:#181818;stroke-width:0.5;stroke-dasharray:5.0,5.0;" x1="31" x2="31" y1="134.8906" y2="1127.0078"/><line style="stroke:#181818;stroke-width:0.5;stroke-dasharray:5.0,5.0;" x1="158" x2="158" y1="134.8906" y2="1127.0078"/><line style="stroke:#181818;stroke-width:0.5;stroke-dasharray:5.0,5.0;" x1="434.5" x2="434.5" y1="134.8906" y2="1127.0078"/><line style="stroke:#181818;stroke-width:0.5;stroke-dasharray:5.0,5.0;" x1="703.5" x2="703.5" y1="134.8906" y2="1127.0078"/><text fill="#000000" font-family="sans-serif" font-size="14" lengthAdjust="spacing" textLength="47" x="5" y="131.5889">Citizen</text><ellipse cx="31.5" cy="67.0938" fill="#E2E2F0" rx="8" ry="8" style="stroke:#181818;stroke-width:0.5;"/><path d="M31.5,75.0938 L31.5,102.0938 M18.5,83.0938 L44.5,83.0938 M31.5,102.0938 L18.5,117.0938 M31.5,102.0938 L44.5,117.0938 " fill="none" style="stroke:#181818;stroke-width:0.5;"/><text fill="#000000" font-family="sans-serif" font-size="14" lengthAdjust="spacing" textLength="47" x="5" y="1139.0029">Citizen</text><ellipse cx="31.5" cy="1150.8047" fill="#E2E2F0" rx="8" ry="8" style="stroke:#181818;stroke-width:0.5;"/><path d="M31.5,1158.8047 L31.5,1185.8047 M18.5,1166.8047 L44.5,1166.8047 M31.5,1185.8047 L18.5,1200.8047 M31.5,1185.8047 L44.5,1200.8047 " fill="none" style="stroke:#181818;stroke-width:0.5;"/><text fill="#000000" font-family="sans-serif" font-size="14" lengthAdjust="spacing" textLength="175" x="68" y="131.5889">Public Works Department</text><ellipse cx="158.5" cy="67.0938" fill="#E2E2F0" rx="8" ry="8" style="stroke:#181818;stroke-width:0.5;"/><path d="M158.5,75.0938 L158.5,102.0938 M145.5,83.0938 L171.5,83.0938 M158.5,102.0938 L145.5,117.0938 M158.5,102.0938 L171.5,117.0938 " fill="none" style="stroke:#181818;stroke-width:0.5;"/><text fill="#000000" font-family="sans-serif" font-size="14" lengthAdjust="spacing" textLength="175" x="68" y="1139.0029">Public Works Department</text><ellipse cx="158.5" cy="1150.8047" fill="#E2E2F0" rx="8" ry="8" style="stroke:#181818;stroke-width:0.5;"/><path d="M158.5,1158.8047 L158.5,1185.8047 M145.5,1166.8047 L171.5,1166.8047 M158.5,1185.8047 L145.5,1200.8047 M158.5,1185.8047 L171.5,1200.8047 " fill="none" style="stroke:#181818;stroke-width:0.5;"/><rect fill="#E2E2F0" height="30.2969" rx="2.5" ry="2.5" style="stroke:#181818;stroke-width:0.5;" width="116" x="376.5" y="103.5938"/><text fill="#000000" font-family="sans-serif" font-size="14" lengthAdjust="spacing" textLength="102" x="383.5" y="123.5889">PHTRS System</text><rect fill="#E2E2F0" height="30.2969" rx="2.5" ry="2.5" style="stroke:#181818;stroke-width:0.5;" width="116" x="376.5" y="1126.0078"/><text fill="#000000" font-family="sans-serif" font-size="14" lengthAdjust="spacing" textLength="102" x="383.5" y="1146.0029">PHTRS System</text><rect fill="#E2E2F0" height="30.2969" rx="2.5" ry="2.5" style="stroke:#181818;stroke-width:0.5;" width="46" x="680.5" y="103.5938"/><text fill="#000000" font-family="sans-serif" font-size="14" lengthAdjust="spacing" textLength="32" x="687.5" y="123.5889">User</text><rect fill="#E2E2F0" height="30.2969" rx="2.5" ry="2.5" style="stroke:#181818;stroke-width:0.5;" width="46" x="680.5" y="1126.0078"/><text fill="#000000" font-family="sans-serif" font-size="14" lengthAdjust="spacing" textLength="32" x="687.5" y="1146.0029">User</text><rect fill="#EEEEEE" height="3" style="stroke:#EEEEEE;stroke-width:1.0;" width="731.5" x="0" y="165.457"/><line style="stroke:#000000;stroke-width:1.0;" x1="0" x2="731.5" y1="165.457" y2="165.457"/><line style="stroke:#000000;stroke-width:1.0;" x1="0" x2="731.5" y1="168.457" y2="168.457"/><rect fill="#EEEEEE" height="23.1328" style="stroke:#000000;stroke-width:2.0;" width="130" x="300.75" y="154.8906"/><text fill="#000000" font-family="sans-serif" font-size="13" font-weight="bold" lengthAdjust="spacing" textLength="111" x="306.75" y="170.9575">Report Pothole</text><polygon fill="#181818" points="422.5,205.1563,432.5,209.1563,422.5,213.1563,426.5,209.1563" style="stroke:#181818;stroke-width:1.0;"/><line style="stroke:#181818;stroke-width:1.0;" x1="31.5" x2="428.5" y1="209.1563" y2="209.1563"/><text fill="#000000" font-family="sans-serif" font-size="13" lengthAdjust="spacing" textLength="172" x="38.5" y="204.0903">Navigate to PHTRS website</text><polygon fill="#181818" points="422.5,234.2891,432.5,238.2891,422.5,242.2891,426.5,238.2891" style="stroke:#181818;stroke-width:1.0;"/><line style="stroke:#181818;stroke-width:1.0;" x1="31.5" x2="428.5" y1="238.2891" y2="238.2891"/><text fill="#000000" font-family="sans-serif" font-size="13" lengthAdjust="spacing" textLength="203" x="38.5" y="233.2231">Click on "Report Pothole" button</text><polygon fill="#181818" points="42.5,263.4219,32.5,267.4219,42.5,271.4219,38.5,267.4219" style="stroke:#181818;stroke-width:1.0;"/><line style="stroke:#181818;stroke-width:1.0;" x1="36.5" x2="433.5" y1="267.4219" y2="267.4219"/><text fill="#000000" font-family="sans-serif" font-size="13" lengthAdjust="spacing" textLength="194" x="48.5" y="262.356">Display pothole reporting form</text><polygon fill="#181818" points="422.5,292.5547,432.5,296.5547,422.5,300.5547,426.5,296.5547" style="stroke:#181818;stroke-width:1.0;"/><line style="stroke:#181818;stroke-width:1.0;" x1="31.5" x2="428.5" y1="296.5547" y2="296.5547"/><text fill="#000000" font-family="sans-serif" font-size="13" lengthAdjust="spacing" textLength="132" x="38.5" y="291.4888">Enter pothole details</text><line style="stroke:#181818;stroke-width:1.0;" x1="434.5" x2="476.5" y1="340.8203" y2="340.8203"/><line style="stroke:#181818;stroke-width:1.0;" x1="476.5" x2="476.5" y1="340.8203" y2="353.8203"/><line style="stroke:#181818;stroke-width:1.0;" x1="435.5" x2="476.5" y1="353.8203" y2="353.8203"/><polygon fill="#181818" points="445.5,349.8203,435.5,353.8203,445.5,357.8203,441.5,353.8203" style="stroke:#181818;stroke-width:1.0;"/><text fill="#000000" font-family="sans-serif" font-size="13" lengthAdjust="spacing" textLength="166" x="441.5" y="320.6216">Generate unique identifier</text><text fill="#000000" font-family="sans-serif" font-size="13" lengthAdjust="spacing" textLength="158" x="441.5" y="335.7544">and assign repair priority</text><polygon fill="#181818" points="42.5,378.9531,32.5,382.9531,42.5,386.9531,38.5,382.9531" style="stroke:#181818;stroke-width:1.0;"/><line style="stroke:#181818;stroke-width:1.0;stroke-dasharray:2.0,2.0;" x1="36.5" x2="433.5" y1="382.9531" y2="382.9531"/><text fill="#000000" font-family="sans-serif" font-size="13" lengthAdjust="spacing" textLength="193" x="48.5" y="377.8872">Confirmation of pothole report</text><rect fill="#EEEEEE" height="3" style="stroke:#EEEEEE;stroke-width:1.0;" width="731.5" x="0" y="411.5195"/><line style="stroke:#000000;stroke-width:1.0;" x1="0" x2="731.5" y1="411.5195" y2="411.5195"/><line style="stroke:#000000;stroke-width:1.0;" x1="0" x2="731.5" y1="414.5195" y2="414.5195"/><rect fill="#EEEEEE" height="23.1328" style="stroke:#000000;stroke-width:2.0;" width="163" x="284.25" y="400.9531"/><text fill="#000000" font-family="sans-serif" font-size="13" font-weight="bold" lengthAdjust="spacing" textLength="144" x="290.25" y="417.02">Assign Repair Crew</text><polygon fill="#181818" points="422.5,451.2188,432.5,455.2188,422.5,459.2188,426.5,455.2188" style="stroke:#181818;stroke-width:1.0;"/><line style="stroke:#181818;stroke-width:1.0;" x1="158.5" x2="428.5" y1="455.2188" y2="455.2188"/><text fill="#000000" font-family="sans-serif" font-size="13" lengthAdjust="spacing" textLength="152" x="165.5" y="450.1528">Log in to PHTRS system</text><polygon fill="#181818" points="422.5,480.3516,432.5,484.3516,422.5,488.3516,426.5,484.3516" style="stroke:#181818;stroke-width:1.0;"/><line style="stroke:#181818;stroke-width:1.0;" x1="158.5" x2="428.5" y1="484.3516" y2="484.3516"/><text fill="#000000" font-family="sans-serif" font-size="13" lengthAdjust="spacing" textLength="252" x="165.5" y="479.2856">Access "Assign Repair Crew" dashboard</text><polygon fill="#181818" points="169.5,509.4844,159.5,513.4844,169.5,517.4844,165.5,513.4844" style="stroke:#181818;stroke-width:1.0;"/><line style="stroke:#181818;stroke-width:1.0;" x1="163.5" x2="433.5" y1="513.4844" y2="513.4844"/><text fill="#000000" font-family="sans-serif" font-size="13" lengthAdjust="spacing" textLength="202" x="175.5" y="508.4185">Display list of reported potholes</text><polygon fill="#181818" points="422.5,538.6172,432.5,542.6172,422.5,546.6172,426.5,542.6172" style="stroke:#181818;stroke-width:1.0;"/><line style="stroke:#181818;stroke-width:1.0;" x1="158.5" x2="428.5" y1="542.6172" y2="542.6172"/><text fill="#000000" font-family="sans-serif" font-size="13" lengthAdjust="spacing" textLength="209" x="165.5" y="537.5513">Prioritize and assign repair crews</text><polygon fill="#181818" points="169.5,567.75,159.5,571.75,169.5,575.75,165.5,571.75" style="stroke:#181818;stroke-width:1.0;"/><line style="stroke:#181818;stroke-width:1.0;stroke-dasharray:2.0,2.0;" x1="163.5" x2="433.5" y1="571.75" y2="571.75"/><text fill="#000000" font-family="sans-serif" font-size="13" lengthAdjust="spacing" textLength="151" x="175.5" y="566.6841">Assignments confirmed</text><rect fill="#EEEEEE" height="3" style="stroke:#EEEEEE;stroke-width:1.0;" width="731.5" x="0" y="600.3164"/><line style="stroke:#000000;stroke-width:1.0;" x1="0" x2="731.5" y1="600.3164" y2="600.3164"/><line style="stroke:#000000;stroke-width:1.0;" x1="0" x2="731.5" y1="603.3164" y2="603.3164"/><rect fill="#EEEEEE" height="23.1328" style="stroke:#000000;stroke-width:2.0;" width="149" x="291.25" y="589.75"/><text fill="#000000" font-family="sans-serif" font-size="13" font-weight="bold" lengthAdjust="spacing" textLength="130" x="297.25" y="605.8169">Track Work Order</text><polygon fill="#181818" points="422.5,640.0156,432.5,644.0156,422.5,648.0156,426.5,644.0156" style="stroke:#181818;stroke-width:1.0;"/><line style="stroke:#181818;stroke-width:1.0;" x1="158.5" x2="428.5" y1="644.0156" y2="644.0156"/><text fill="#000000" font-family="sans-serif" font-size="13" lengthAdjust="spacing" textLength="152" x="165.5" y="638.9497">Log in to PHTRS system</text><polygon fill="#181818" points="422.5,669.1484,432.5,673.1484,422.5,677.1484,426.5,673.1484" style="stroke:#181818;stroke-width:1.0;"/><line style="stroke:#181818;stroke-width:1.0;" x1="158.5" x2="428.5" y1="673.1484" y2="673.1484"/><text fill="#000000" font-family="sans-serif" font-size="13" lengthAdjust="spacing" textLength="188" x="165.5" y="668.0825">Access work order dashboard</text><polygon fill="#181818" points="169.5,698.2813,159.5,702.2813,169.5,706.2813,165.5,702.2813" style="stroke:#181818;stroke-width:1.0;"/><line style="stroke:#181818;stroke-width:1.0;" x1="163.5" x2="433.5" y1="702.2813" y2="702.2813"/><text fill="#000000" font-family="sans-serif" font-size="13" lengthAdjust="spacing" textLength="223" x="175.5" y="697.2153">Display list of assigned work orders</text><polygon fill="#181818" points="422.5,727.4141,432.5,731.4141,422.5,735.4141,426.5,731.4141" style="stroke:#181818;stroke-width:1.0;"/><line style="stroke:#181818;stroke-width:1.0;" x1="158.5" x2="428.5" y1="731.4141" y2="731.4141"/><text fill="#000000" font-family="sans-serif" font-size="13" lengthAdjust="spacing" textLength="162" x="165.5" y="726.3481">Update work order status</text><polygon fill="#181818" points="169.5,756.5469,159.5,760.5469,169.5,764.5469,165.5,760.5469" style="stroke:#181818;stroke-width:1.0;"/><line style="stroke:#181818;stroke-width:1.0;stroke-dasharray:2.0,2.0;" x1="163.5" x2="433.5" y1="760.5469" y2="760.5469"/><text fill="#000000" font-family="sans-serif" font-size="13" lengthAdjust="spacing" textLength="159" x="175.5" y="755.481">Status update confirmed</text><rect fill="#EEEEEE" height="3" style="stroke:#EEEEEE;stroke-width:1.0;" width="731.5" x="0" y="789.1133"/><line style="stroke:#000000;stroke-width:1.0;" x1="0" x2="731.5" y1="789.1133" y2="789.1133"/><line style="stroke:#000000;stroke-width:1.0;" x1="0" x2="731.5" y1="792.1133" y2="792.1133"/><rect fill="#EEEEEE" height="23.1328" style="stroke:#000000;stroke-width:2.0;" width="138" x="296.75" y="778.5469"/><text fill="#000000" font-family="sans-serif" font-size="13" font-weight="bold" lengthAdjust="spacing" textLength="119" x="302.75" y="794.6138">Record Damage</text><polygon fill="#181818" points="422.5,828.8125,432.5,832.8125,422.5,836.8125,426.5,832.8125" style="stroke:#181818;stroke-width:1.0;"/><line style="stroke:#181818;stroke-width:1.0;" x1="31.5" x2="428.5" y1="832.8125" y2="832.8125"/><text fill="#000000" font-family="sans-serif" font-size="13" lengthAdjust="spacing" textLength="239" x="38.5" y="827.7466">Navigate to "Report Damage" section</text><polygon fill="#181818" points="422.5,857.9453,432.5,861.9453,422.5,865.9453,426.5,861.9453" style="stroke:#181818;stroke-width:1.0;"/><line style="stroke:#181818;stroke-width:1.0;" x1="31.5" x2="428.5" y1="861.9453" y2="861.9453"/><text fill="#000000" font-family="sans-serif" font-size="13" lengthAdjust="spacing" textLength="301" x="38.5" y="856.8794">Enter personal information and damage details</text><polygon fill="#181818" points="42.5,887.0781,32.5,891.0781,42.5,895.0781,38.5,891.0781" style="stroke:#181818;stroke-width:1.0;"/><line style="stroke:#181818;stroke-width:1.0;stroke-dasharray:2.0,2.0;" x1="36.5" x2="433.5" y1="891.0781" y2="891.0781"/><text fill="#000000" font-family="sans-serif" font-size="13" lengthAdjust="spacing" textLength="198" x="48.5" y="886.0122">Confirmation of damage report</text><rect fill="#EEEEEE" height="3" style="stroke:#EEEEEE;stroke-width:1.0;" width="731.5" x="0" y="919.6445"/><line style="stroke:#000000;stroke-width:1.0;" x1="0" x2="731.5" y1="919.6445" y2="919.6445"/><line style="stroke:#000000;stroke-width:1.0;" x1="0" x2="731.5" y1="922.6445" y2="922.6445"/><rect fill="#EEEEEE" height="23.1328" style="stroke:#000000;stroke-width:2.0;" width="175" x="278.25" y="909.0781"/><text fill="#000000" font-family="sans-serif" font-size="13" font-weight="bold" lengthAdjust="spacing" textLength="156" x="284.25" y="925.145">Query Pothole Status</text><polygon fill="#181818" points="445.5,959.3438,435.5,963.3438,445.5,967.3438,441.5,963.3438" style="stroke:#181818;stroke-width:1.0;"/><line style="stroke:#181818;stroke-width:1.0;" x1="439.5" x2="702.5" y1="963.3438" y2="963.3438"/><text fill="#000000" font-family="sans-serif" font-size="13" lengthAdjust="spacing" textLength="152" x="451.5" y="958.2778">Log in to PHTRS system</text><polygon fill="#181818" points="445.5,988.4766,435.5,992.4766,445.5,996.4766,441.5,992.4766" style="stroke:#181818;stroke-width:1.0;"/><line style="stroke:#181818;stroke-width:1.0;" x1="439.5" x2="702.5" y1="992.4766" y2="992.4766"/><text fill="#000000" font-family="sans-serif" font-size="13" lengthAdjust="spacing" textLength="245" x="451.5" y="987.4106">Access "Query Pothole Status" section</text><polygon fill="#181818" points="691.5,1017.6094,701.5,1021.6094,691.5,1025.6094,695.5,1021.6094" style="stroke:#181818;stroke-width:1.0;"/><line style="stroke:#181818;stroke-width:1.0;" x1="434.5" x2="697.5" y1="1021.6094" y2="1021.6094"/><text fill="#000000" font-family="sans-serif" font-size="13" lengthAdjust="spacing" textLength="178" x="441.5" y="1016.5435">Display search criteria fields</text><polygon fill="#181818" points="445.5,1046.7422,435.5,1050.7422,445.5,1054.7422,441.5,1050.7422" style="stroke:#181818;stroke-width:1.0;"/><line style="stroke:#181818;stroke-width:1.0;" x1="439.5" x2="702.5" y1="1050.7422" y2="1050.7422"/><text fill="#000000" font-family="sans-serif" font-size="13" lengthAdjust="spacing" textLength="129" x="451.5" y="1045.6763">Enter search criteria</text><polygon fill="#181818" points="691.5,1075.875,701.5,1079.875,691.5,1083.875,695.5,1079.875" style="stroke:#181818;stroke-width:1.0;"/><line style="stroke:#181818;stroke-width:1.0;stroke-dasharray:2.0,2.0;" x1="434.5" x2="697.5" y1="1079.875" y2="1079.875"/><text fill="#000000" font-family="sans-serif" font-size="13" lengthAdjust="spacing" textLength="219" x="441.5" y="1074.8091">Display pothole status information</text><polygon fill="#181818" points="445.5,1105.0078,435.5,1109.0078,445.5,1113.0078,441.5,1109.0078" style="stroke:#181818;stroke-width:1.0;"/><line style="stroke:#181818;stroke-width:1.0;" x1="439.5" x2="702.5" y1="1109.0078" y2="1109.0078"/><text fill="#000000" font-family="sans-serif" font-size="13" lengthAdjust="spacing" textLength="212" x="451.5" y="1103.9419">Subscribe automated notification</text><!--MD5=[11e671baeaa6649dbdee5026c86a9bfe]
@startuml
title Web-based Pothole Tracking and Repair System \nProcess Flow Diagram

actor Citizen
actor "Public Works Department" as PWD
participant "PHTRS System" as PHTRS

== Report Pothole ==

Citizen -> PHTRS: Navigate to PHTRS website
Citizen -> PHTRS: Click on "Report Pothole" button
PHTRS -> Citizen: Display pothole reporting form
Citizen -> PHTRS: Enter pothole details
PHTRS -> PHTRS: Generate unique identifier\nand assign repair priority
PHTRS - -> Citizen: Confirmation of pothole report

== Assign Repair Crew ==

PWD -> PHTRS: Log in to PHTRS system
PWD -> PHTRS: Access "Assign Repair Crew" dashboard
PHTRS -> PWD: Display list of reported potholes
PWD -> PHTRS: Prioritize and assign repair crews
PHTRS - -> PWD: Assignments confirmed

== Track Work Order ==

PWD -> PHTRS: Log in to PHTRS system
PWD -> PHTRS: Access work order dashboard
PHTRS -> PWD: Display list of assigned work orders
PWD -> PHTRS: Update work order status
PHTRS - -> PWD: Status update confirmed

== Record Damage ==

Citizen -> PHTRS: Navigate to "Report Damage" section
Citizen -> PHTRS: Enter personal information and damage details
PHTRS - -> Citizen: Confirmation of damage report

== Query Pothole Status ==

User -> PHTRS: Log in to PHTRS system
User -> PHTRS: Access "Query Pothole Status" section
PHTRS -> User: Display search criteria fields
User -> PHTRS: Enter search criteria
PHTRS - -> User: Display pothole status information
User -> PHTRS: Subscribe automated notification
@enduml

PlantUML version 1.2022.7(Mon Aug 22 17:01:30 UTC 2022)
(GPL source distribution)
Java Runtime: OpenJDK Runtime Environment
JVM: OpenJDK 64-Bit Server VM
Default Encoding: UTF-8
Language: en
Country: null
--></g></svg>