<?xml version="1.0" encoding="UTF-8" standalone="no"?><svg xmlns="http://www.w3.org/2000/svg" xmlns:xlink="http://www.w3.org/1999/xlink" contentStyleType="text/css" height="824px" preserveAspectRatio="none" style="width:1009px;height:824px;background:#FFFFFF;" version="1.1" viewBox="0 0 1009 824" width="1009px" zoomAndPan="magnify"><defs/><g><rect fill="none" height="26.2969" id="_title" style="stroke:none;stroke-width:1.0;" width="257" x="369.25" y="5"/><text fill="#000000" font-family="sans-serif" font-size="14" font-weight="bold" lengthAdjust="spacing" textLength="247" x="374.25" y="22.9951">ATM Transaction State Diagram</text><!--MD5=[57171a321e4bdbabbe504d3e30464215]
cluster InsertCard--><g id="cluster_InsertCard"><path d="M247.5,118.2969 L356.5,118.2969 A12.5,12.5 0 0 1 369,130.7969 L369,144.5938 L235,144.5938 L235,130.7969 A12.5,12.5 0 0 1 247.5,118.2969 " fill="#F1F1F1" style="stroke:#F1F1F1;stroke-width:1.0;"/><rect fill="none" height="201" rx="12.5" ry="12.5" style="stroke:#181818;stroke-width:0.5;" width="134" x="235" y="118.2969"/><line style="stroke:#181818;stroke-width:0.5;" x1="235" x2="369" y1="144.5938" y2="144.5938"/><text fill="#000000" font-family="sans-serif" font-size="14" lengthAdjust="spacing" textLength="71" x="266.5" y="135.292">InsertCard</text></g><!--MD5=[846d3419c2fca6e00d5e8420de64a630]
cluster WithdrawMoney--><g id="cluster_WithdrawMoney"><path d="M679.5,511.2969 L820.5,511.2969 A12.5,12.5 0 0 1 833,523.7969 L833,537.5938 L667,537.5938 L667,523.7969 A12.5,12.5 0 0 1 679.5,511.2969 " fill="#F1F1F1" style="stroke:#F1F1F1;stroke-width:1.0;"/><rect fill="none" height="232" rx="12.5" ry="12.5" style="stroke:#181818;stroke-width:0.5;" width="166" x="667" y="511.2969"/><line style="stroke:#181818;stroke-width:0.5;" x1="667" x2="833" y1="537.5938" y2="537.5938"/><text fill="#000000" font-family="sans-serif" font-size="14" lengthAdjust="spacing" textLength="109" x="695.5" y="528.292">WithdrawMoney</text></g><!--MD5=[3bc55bb7d3df25cecdd64fed69e59a0a]
cluster RetryAuthentication--><g id="cluster_RetryAuthentication"><path d="M19.5,536.9369 L168.5,536.9369 A12.5,12.5 0 0 1 181,549.4369 L181,563.2338 L7,563.2338 L7,549.4369 A12.5,12.5 0 0 1 19.5,536.9369 " fill="#F1F1F1" style="stroke:#F1F1F1;stroke-width:1.0;"/><rect fill="none" height="206.36" rx="12.5" ry="12.5" style="stroke:#181818;stroke-width:0.5;" width="174" x="7" y="536.9369"/><line style="stroke:#181818;stroke-width:0.5;" x1="7" x2="181" y1="563.2338" y2="563.2338"/><text fill="#000000" font-family="sans-serif" font-size="14" lengthAdjust="spacing" textLength="136" x="26" y="553.932">RetryAuthentication</text></g><ellipse cx="306" cy="171.2969" fill="#222222" rx="10" ry="10" style="stroke:none;stroke-width:1.0;"/><g id="InsertCard.EnterPIN"><rect fill="#F1F1F1" height="52.5938" rx="12.5" ry="12.5" style="stroke:#181818;stroke-width:0.5;" width="79" x="266.5" y="242.2969"/><line style="stroke:#181818;stroke-width:0.5;" x1="266.5" x2="345.5" y1="268.5938" y2="268.5938"/><text fill="#000000" font-family="sans-serif" font-size="14" lengthAdjust="spacing" textLength="59" x="276.5" y="260.292">EnterPIN</text><text fill="#000000" font-family="sans-serif" font-size="14" lengthAdjust="spacing" textLength="28" x="271.5" y="286.5889">****</text></g><ellipse cx="754" cy="564.2969" fill="#222222" rx="10" ry="10" style="stroke:none;stroke-width:1.0;"/><g id="WithdrawMoney.EnterAmount"><rect fill="#F1F1F1" height="52.5938" rx="12.5" ry="12.5" style="stroke:#181818;stroke-width:0.5;" width="111" x="698.5" y="666.2969"/><line style="stroke:#181818;stroke-width:0.5;" x1="698.5" x2="809.5" y1="692.5938" y2="692.5938"/><text fill="#000000" font-family="sans-serif" font-size="14" lengthAdjust="spacing" textLength="91" x="708.5" y="684.292">EnterAmount</text><text fill="#000000" font-family="sans-serif" font-size="14" lengthAdjust="spacing" textLength="9" x="703.5" y="710.5889">$</text></g><g id="RetryAuthentication.Rejected"><rect fill="#F1F1F1" height="52.5938" rx="12.5" ry="12.5" style="stroke:#181818;stroke-width:0.5;" width="82" x="31" y="666.2969"/><line style="stroke:#181818;stroke-width:0.5;" x1="31" x2="113" y1="692.5938" y2="692.5938"/><text fill="#000000" font-family="sans-serif" font-size="14" lengthAdjust="spacing" textLength="62" x="41" y="684.292">Rejected</text><text fill="#000000" font-family="sans-serif" font-size="14" lengthAdjust="spacing" textLength="24" x="36" y="710.5889">Exit</text></g><ellipse cx="243" cy="53.2969" fill="#222222" rx="10" ry="10" style="stroke:none;stroke-width:1.0;"/><ellipse cx="383" cy="808.2969" fill="none" rx="10" ry="10" style="stroke:#222222;stroke-width:1.0;"/><ellipse cx="383.5" cy="808.7969" fill="#222222" rx="6" ry="6" style="stroke:none;stroke-width:1.0;"/><g id="InsertCard.VerifyPIN"><rect fill="#F1F1F1" height="50" rx="12.5" ry="12.5" style="stroke:#181818;stroke-width:0.5;" width="79" x="311.5" y="390.2969"/><line style="stroke:#181818;stroke-width:0.5;" x1="311.5" x2="390.5" y1="416.5938" y2="416.5938"/><text fill="#000000" font-family="sans-serif" font-size="14" lengthAdjust="spacing" textLength="59" x="321.5" y="408.292">VerifyPIN</text></g><g id="VerifyPIN.CheckBalance"><rect fill="#F1F1F1" height="50" rx="12.5" ry="12.5" style="stroke:#181818;stroke-width:0.5;" width="119" x="300.5" y="539.2969"/><line style="stroke:#181818;stroke-width:0.5;" x1="300.5" x2="419.5" y1="565.5938" y2="565.5938"/><text fill="#000000" font-family="sans-serif" font-size="14" lengthAdjust="spacing" textLength="99" x="310.5" y="557.292">CheckBalance</text></g><g id="CheckBalance.AccountClosed"><rect fill="#F1F1F1" height="52.5938" rx="12.5" ry="12.5" style="stroke:#181818;stroke-width:0.5;" width="129" x="318.5" y="666.2969"/><line style="stroke:#181818;stroke-width:0.5;" x1="318.5" x2="447.5" y1="692.5938" y2="692.5938"/><text fill="#000000" font-family="sans-serif" font-size="14" lengthAdjust="spacing" textLength="105" x="330.5" y="684.292">AccountClosed</text><text fill="#000000" font-family="sans-serif" font-size="14" lengthAdjust="spacing" textLength="109" x="323.5" y="710.5889">Account Closed</text></g><g id="WithdrawMoney.DispatchMoney"><rect fill="#F1F1F1" height="52.5938" rx="12.5" ry="12.5" style="stroke:#181818;stroke-width:0.5;" width="145" x="857.5" y="666.2969"/><line style="stroke:#181818;stroke-width:0.5;" x1="857.5" x2="1002.5" y1="692.5938" y2="692.5938"/><text fill="#000000" font-family="sans-serif" font-size="14" lengthAdjust="spacing" textLength="107" x="876.5" y="684.292">DispatchMoney</text><text fill="#000000" font-family="sans-serif" font-size="14" lengthAdjust="spacing" textLength="125" x="862.5" y="710.5889">Money Dispensed</text></g><!--MD5=[b43395c5d369203c92a0f123a5eb1f92]
link *start to InsertCard--><g id="link_*start_InsertCard"><path d="M236.55,61.2069 C231.5,73.5969 229.485,100.5419 230.5038,124.5506 C231.0131,136.555 232.2809,147.8253 234.307,156.1752 C234.4337,156.697 234.5633,157.2075 234.6958,157.706 C234.7621,157.9553 234.8291,158.2015 234.8969,158.4447 C234.9307,158.5664 234.9648,158.6872 234.9991,158.8073 " fill="none" id="*start-to-InsertCard" style="stroke:#181818;stroke-width:1.0;"/><polygon fill="#181818" points="234.9991,158.8073,236.377,149.0553,233.6276,153.999,228.6838,151.2496,234.9991,158.8073" style="stroke:#181818;stroke-width:1.0;"/></g><!--MD5=[b43395c5d369203c92a0f123a5eb1f92]
link *start to InsertCard--><g id="link_*start_InsertCard"><path d="M249.68,60.8669 C252.395,66.9544 254.2994,76.755 255.3933,88.052 C255.9402,93.7005 256.2846,99.7232 256.4263,105.8428 C256.4972,108.9026 256.5174,111.9867 256.487,115.0604 C256.4794,115.8288 256.4686,116.5966 256.4547,117.3631 C256.4512,117.5548 256.4475,117.7464 256.4436,117.9378 " fill="none" id="*start-to-InsertCard-1" style="stroke:#181818;stroke-width:1.0;"/><polygon fill="#181818" points="256.4436,117.9378,260.6251,109.0207,256.5449,112.9389,252.6268,108.8587,256.4436,117.9378" style="stroke:#181818;stroke-width:1.0;"/></g><!--MD5=[efad88baffe5f5fcf61e5ad4439aac6d]
link *start*InsertCard to EnterPIN--><g id="link_*start*InsertCard_EnterPIN"><path d="M306,181.4569 C306,194.0869 306,217.4769 306,236.7269 " fill="none" id="*start*InsertCard-to-EnterPIN" style="stroke:#181818;stroke-width:1.0;"/><polygon fill="#181818" points="306,242.0369,310,233.0369,306,237.0369,302,233.0369,306,242.0369" style="stroke:#181818;stroke-width:1.0;"/></g><!--MD5=[1243dc497862452207a266b12852b11f]
link EnterPIN to VerifyPIN--><g id="link_EnterPIN_VerifyPIN"><path d="M313.94,295.2969 C321.75,320.3669 333.65,358.5869 341.85,384.9169 " fill="none" id="EnterPIN-to-VerifyPIN" style="stroke:#181818;stroke-width:1.0;"/><polygon fill="#181818" points="343.44,390.0169,344.5835,380.2346,341.9535,385.243,336.9452,382.613,343.44,390.0169" style="stroke:#181818;stroke-width:1.0;"/><text fill="#000000" font-family="sans-serif" font-size="13" lengthAdjust="spacing" textLength="37" x="334" y="356.3638">{PIN}</text></g><!--MD5=[a7050c9da52a66ed6c64abf1e9cc40df]
link VerifyPIN to CheckBalance--><g id="link_VerifyPIN_CheckBalance"><path d="M352.49,440.5669 C354.05,466.1069 356.51,506.3069 358.19,533.6869 " fill="none" id="VerifyPIN-to-CheckBalance" style="stroke:#181818;stroke-width:1.0;"/><polygon fill="#181818" points="358.51,538.9869,361.9359,529.7531,358.1954,533.9968,353.9517,530.2564,358.51,538.9869" style="stroke:#181818;stroke-width:1.0;"/><text fill="#000000" font-family="sans-serif" font-size="13" lengthAdjust="spacing" textLength="72" x="356" y="483.3638">PIN Correct</text></g><!--MD5=[3d815b2c39ffd6358c8b6cdf7f2ae690]
link VerifyPIN to WithdrawMoney--><g id="link_VerifyPIN_WithdrawMoney"><path d="M390.73,434.3269 C433.31,453.6419 502.84,485.1869 562.4762,512.2431 C592.2944,525.7713 619.6391,538.1772 639.9048,547.3711 C650.0377,551.968 658.4009,555.762 664.4187,558.4917 C665.1709,558.8329 665.8864,559.1575 666.5642,559.4649 " fill="none" id="VerifyPIN-to-WithdrawMoney" style="stroke:#181818;stroke-width:1.0;"/><polygon fill="#181818" points="666.5642,559.4649,660.0203,552.1044,662.0108,557.3995,656.7157,559.39,666.5642,559.4649" style="stroke:#181818;stroke-width:1.0;"/><text fill="#000000" font-family="sans-serif" font-size="13" lengthAdjust="spacing" textLength="72" x="504" y="483.3638">PIN Correct</text></g><!--MD5=[66758e4bea09ee0ce39647381eb1577e]
link VerifyPIN to RetryAuthentication--><g id="link_VerifyPIN_RetryAuthentication"><path d="M311.47,437.6869 C295.79,446.8969 277.96,458.2969 263,470.2969 C241.27,487.7319 219.475,510.0969 202.7763,528.5256 C194.4269,537.74 187.3516,545.9703 182.1955,552.1083 C181.8732,552.4919 181.5585,552.8674 181.2513,553.2344 C181.1746,553.3261 181.0983,553.4173 181.0225,553.508 " fill="none" id="VerifyPIN-to-RetryAuthentication" style="stroke:#181818;stroke-width:1.0;"/><polygon fill="#181818" points="181.0225,553.508,189.8638,549.1686,184.2294,549.6719,183.726,544.0375,181.0225,553.508" style="stroke:#181818;stroke-width:1.0;"/><text fill="#000000" font-family="sans-serif" font-size="13" lengthAdjust="spacing" textLength="81" x="264" y="483.3638">PIN Incorrect</text></g><!--MD5=[c5b495ffefdfa5d1a48956558e1618f6]
link CheckBalance to AccountClosed--><g id="link_CheckBalance_AccountClosed"><path d="M300.48,576.8369 C259.74,587.6069 216.49,606.5569 237,636.2969 C254.39,661.5169 284.86,675.2869 313.48,682.7969 " fill="none" id="CheckBalance-to-AccountClosed" style="stroke:#181818;stroke-width:1.0;"/><polygon fill="#181818" points="318.43,684.0369,310.6731,677.9681,313.5801,682.8208,308.7274,685.7279,318.43,684.0369" style="stroke:#181818;stroke-width:1.0;"/><text fill="#000000" font-family="sans-serif" font-size="13" lengthAdjust="spacing" textLength="78" x="238" y="632.3638">Balance = 0</text></g><!--MD5=[316d3bba03691da8ab90c80b35a565d1]
link CheckBalance to WithdrawMoney--><g id="link_CheckBalance_WithdrawMoney"><path d="M419.62,564.2969 C463.855,564.2969 525.155,564.2969 576.61,564.2969 C602.3375,564.2969 625.6038,564.2969 643.045,564.2969 C651.7656,564.2969 659.03,564.2969 664.4177,564.2969 C665.0911,564.2969 665.7352,564.2969 666.3492,564.2969 C666.5027,564.2969 666.6543,564.2969 666.8041,564.2969 " fill="none" id="CheckBalance-to-WithdrawMoney" style="stroke:#181818;stroke-width:1.0;"/><polygon fill="#181818" points="666.8041,564.2969,657.8041,560.2969,661.8041,564.2969,657.8041,568.2969,666.8041,564.2969" style="stroke:#181818;stroke-width:1.0;"/><text fill="#000000" font-family="sans-serif" font-size="13" lengthAdjust="spacing" textLength="129" x="482.57" y="557.3638">Account Balance ($)</text></g><!--MD5=[b55441e145e12dd09c70c71789ad17ac]
link *start*WithdrawMoney to EnterAmount--><g id="link_*start*WithdrawMoney_EnterAmount"><path d="M754,574.3969 C754,592.2569 754,632.6569 754,661.0569 " fill="none" id="*start*WithdrawMoney-to-EnterAmount" style="stroke:#181818;stroke-width:1.0;"/><polygon fill="#181818" points="754,666.2069,758,657.2069,754,661.2069,750,657.2069,754,666.2069" style="stroke:#181818;stroke-width:1.0;"/></g><!--MD5=[17f9105071f7c826c487ea369a7ca500]
link EnterAmount to CheckBalance--><g id="link_EnterAmount_CheckBalance"><path d="M698.28,683.7869 C591.39,668.4169 368,636.2969 368,636.2969 C357.54,625.5069 355.19,609.0369 355.61,594.6769 " fill="none" id="EnterAmount-to-CheckBalance" style="stroke:#181818;stroke-width:1.0;"/><polygon fill="#181818" points="355.88,589.4869,351.398,598.2568,355.609,594.4795,359.3863,598.6905,355.88,589.4869" style="stroke:#181818;stroke-width:1.0;"/><text fill="#000000" font-family="sans-serif" font-size="13" lengthAdjust="spacing" textLength="94" x="369" y="632.3638">Check Balance</text></g><!--MD5=[16af401bfe860a425f7cac370ad61669]
link WithdrawMoney to DispatchMoney--><g id="link_WithdrawMoney_DispatchMoney"><path d="M833.6559,652.8722 C843.3831,656.8256 852.8738,660.6744 861.87,664.3169 " fill="none" id="WithdrawMoney-to-DispatchMoney" style="stroke:#181818;stroke-width:1.0;"/><polygon fill="#181818" points="866.56,666.2169,859.708,659.1423,861.9226,664.3476,856.7172,666.5622,866.56,666.2169" style="stroke:#181818;stroke-width:1.0;"/><text fill="#000000" font-family="sans-serif" font-size="13" lengthAdjust="spacing" textLength="177" x="787" y="632.3638">Amount &lt; Account Balance</text></g><!--MD5=[be0ecf0b8c065ccdbf14be0b6141abd1]
link WithdrawMoney to AccountClosed--><g id="link_WithdrawMoney_AccountClosed"><path d="M666.788,567.1671 C666.6712,567.1943 666.5534,567.2219 666.4344,567.2497 C666.1964,567.3053 665.9539,567.3621 665.707,567.42 C665.2131,567.5358 664.7013,567.6563 664.1722,567.7813 C662.0557,568.2814 659.6609,568.8547 657.0169,569.4988 C646.4406,572.075 631.875,575.7844 615.1675,580.4794 C581.7525,589.8694 539.77,603.2019 504,619.2969 C476.57,631.6369 447.61,648.8269 424.9,663.3669 " fill="none" id="WithdrawMoney-to-AccountClosed" style="stroke:#181818;stroke-width:1.0;"/><polygon fill="#181818" points="420.45,666.2369,430.18,664.7114,424.6494,663.523,425.8378,657.9924,420.45,666.2369" style="stroke:#181818;stroke-width:1.0;"/><text fill="#000000" font-family="sans-serif" font-size="13" lengthAdjust="spacing" textLength="177" x="505" y="632.3638">Amount &gt; Account Balance</text></g><!--MD5=[50e5348c694caabe44a6d49b52fb3bda]
reverse link InsertCard to RetryAuthentication--><g id="link_InsertCard_RetryAuthentication"><path d="M234.8687,211.2233 C234.8227,211.4466 234.7765,211.6707 234.7301,211.8954 C234.6375,212.3449 234.5443,212.7972 234.4505,213.2524 C234.0755,215.0731 233.6918,216.9389 233.3003,218.8466 C232.5171,222.6619 231.7025,226.6445 230.8625,230.7681 C224.1425,263.7569 215.8,305.7669 209,343.2969 C200.305,391.2819 191.4475,445.3269 184.6938,487.8419 C183.0053,498.4706 181.4484,508.3788 180.0583,517.2914 C179.3633,521.7477 178.71,525.9552 178.1028,529.8794 C177.7992,531.8416 177.5072,533.7329 177.2272,535.5491 C177.1573,536.0031 177.088,536.4525 177.0196,536.8971 " fill="none" id="InsertCard-backto-RetryAuthentication" style="stroke:#181818;stroke-width:1.0;"/><polygon fill="#181818" points="234.8687,211.2233,229.1333,219.2299,233.8588,216.1203,236.9684,220.8458,234.8687,211.2233" style="stroke:#181818;stroke-width:1.0;"/><text fill="#000000" font-family="sans-serif" font-size="13" lengthAdjust="spacing" textLength="110" x="210" y="356.3638">Attempts &lt; Limit</text></g><!--MD5=[d3ac6599ce714ee4f559af0c8015a2bb]
link RetryAuthentication to Rejected--><g id="link_RetryAuthentication_Rejected"><path d="M172.86,565.3569 C169.99,566.6769 123.7,588.2069 100,619.2969 C90.6,631.6269 84,647.4869 79.58,661.2369 " fill="none" id="RetryAuthentication-to-Rejected" style="stroke:#181818;stroke-width:1.0;"/><polygon fill="#181818" points="78.05,666.1969,84.5448,658.793,79.5365,661.423,76.9065,656.4146,78.05,666.1969" style="stroke:#181818;stroke-width:1.0;"/><text fill="#000000" font-family="sans-serif" font-size="13" lengthAdjust="spacing" textLength="121" x="101" y="632.3638">Attempts &gt;= Limit</text></g><!--MD5=[9f75a7c7d585b1cfc86676c41adacbb2]
link AccountClosed to *end--><g id="link_AccountClosed_*end"><path d="M383,719.5469 C383,742.3169 383,774.6669 383,793.0669 " fill="none" id="AccountClosed-to-*end" style="stroke:#181818;stroke-width:1.0;"/><polygon fill="#181818" points="383,798.2969,387,789.2969,383,793.2969,379,789.2969,383,798.2969" style="stroke:#181818;stroke-width:1.0;"/></g><!--MD5=[1838dd9ef9c5524e104145f66e3ac9de]
@startuml
title ATM Transaction State Diagram

[*] - -> InsertCard

state InsertCard {
    [*] - -> EnterPIN
    EnterPIN - -> VerifyPIN: {PIN}
    EnterPIN : ****
}

state VerifyPIN {
    VerifyPIN - -> CheckBalance: PIN Correct
    VerifyPIN - -> WithdrawMoney: PIN Correct
    VerifyPIN - -> RetryAuthentication: PIN Incorrect
}

state CheckBalance {
    
    CheckBalance - -> AccountClosed: Balance = 0
    CheckBalance - -> WithdrawMoney: Account Balance ($)
}

state WithdrawMoney {
    [*] - -> EnterAmount
    EnterAmount - -> CheckBalance : Check Balance
    WithdrawMoney - -> DispatchMoney: Amount < Account Balance
    WithdrawMoney - -> AccountClosed: Amount > Account Balance
    EnterAmount: $
}


state AccountClosed {
    AccountClosed: Account Closed
}

state DispatchMoney {
    DispatchMoney: Money Dispensed
}

state RetryAuthentication {
    RetryAuthentication -left- -> InsertCard: Attempts < Limit
    RetryAuthentication - -> Rejected: Attempts >= Limit
    Rejected : Exit
}
[*] - -> InsertCard
AccountClosed - -> [*]
@enduml

PlantUML version 1.2022.7(Mon Aug 22 17:01:30 UTC 2022)
(GPL source distribution)
Java Runtime: OpenJDK Runtime Environment
JVM: OpenJDK 64-Bit Server VM
Default Encoding: UTF-8
Language: en
Country: null
--></g></svg>