<?xml version="1.0" encoding="UTF-8" standalone="no"?><svg xmlns="http://www.w3.org/2000/svg" xmlns:xlink="http://www.w3.org/1999/xlink" contentStyleType="text/css" height="957px" preserveAspectRatio="none" style="width:494px;height:957px;background:#FFFFFF;" version="1.1" viewBox="0 0 494 957" width="494px" zoomAndPan="magnify"><defs/><g><rect fill="none" height="26.2969" id="_title" style="stroke:none;stroke-width:1.0;" width="226" x="135.25" y="10"/><text fill="#000000" font-family="sans-serif" font-size="14" font-weight="bold" lengthAdjust="spacing" textLength="216" x="140.25" y="27.9951">ATM Transaction Sequence</text><rect fill="none" height="669.0078" style="stroke:#000000;stroke-width:1.5;" width="477.5" x="10" y="236.2578"/><rect fill="none" height="179.6016" style="stroke:#000000;stroke-width:1.5;" width="457.5" x="20" y="289.5234"/><rect fill="none" height="90.2031" style="stroke:#000000;stroke-width:1.5;" width="271" x="30" y="371.9219"/><rect fill="none" height="208.7344" style="stroke:#000000;stroke-width:1.5;" width="457.5" x="20" y="512.2578"/><rect fill="none" height="90.2031" style="stroke:#000000;stroke-width:1.5;" width="320" x="30" y="623.7891"/><rect fill="none" height="90.2031" style="stroke:#000000;stroke-width:1.5;" width="271" x="30" y="808.0625"/><line style="stroke:#181818;stroke-width:0.5;stroke-dasharray:5.0,5.0;" x1="81" x2="81" y1="73.5938" y2="922.2656"/><line style="stroke:#181818;stroke-width:0.5;stroke-dasharray:5.0,5.0;" x1="269" x2="269" y1="73.5938" y2="922.2656"/><line style="stroke:#181818;stroke-width:0.5;stroke-dasharray:5.0,5.0;" x1="442.5" x2="442.5" y1="73.5938" y2="922.2656"/><rect fill="#E2E2F0" height="30.2969" rx="2.5" ry="2.5" style="stroke:#181818;stroke-width:0.5;" width="82" x="40" y="42.2969"/><text fill="#000000" font-family="sans-serif" font-size="14" lengthAdjust="spacing" textLength="68" x="47" y="62.292">Customer</text><rect fill="#E2E2F0" height="30.2969" rx="2.5" ry="2.5" style="stroke:#181818;stroke-width:0.5;" width="82" x="40" y="921.2656"/><text fill="#000000" font-family="sans-serif" font-size="14" lengthAdjust="spacing" textLength="68" x="47" y="941.2607">Customer</text><rect fill="#E2E2F0" height="30.2969" rx="2.5" ry="2.5" style="stroke:#181818;stroke-width:0.5;" width="44" x="247" y="42.2969"/><text fill="#000000" font-family="sans-serif" font-size="14" lengthAdjust="spacing" textLength="30" x="254" y="62.292">ATM</text><rect fill="#E2E2F0" height="30.2969" rx="2.5" ry="2.5" style="stroke:#181818;stroke-width:0.5;" width="44" x="247" y="921.2656"/><text fill="#000000" font-family="sans-serif" font-size="14" lengthAdjust="spacing" textLength="30" x="254" y="941.2607">ATM</text><rect fill="#E2E2F0" height="30.2969" rx="2.5" ry="2.5" style="stroke:#181818;stroke-width:0.5;" width="49" x="418.5" y="42.2969"/><text fill="#000000" font-family="sans-serif" font-size="14" lengthAdjust="spacing" textLength="35" x="425.5" y="62.292">Bank</text><rect fill="#E2E2F0" height="30.2969" rx="2.5" ry="2.5" style="stroke:#181818;stroke-width:0.5;" width="49" x="418.5" y="921.2656"/><text fill="#000000" font-family="sans-serif" font-size="14" lengthAdjust="spacing" textLength="35" x="425.5" y="941.2607">Bank</text><polygon fill="#181818" points="257,100.7266,267,104.7266,257,108.7266,261,104.7266" style="stroke:#181818;stroke-width:1.0;"/><line style="stroke:#181818;stroke-width:1.0;" x1="81" x2="263" y1="104.7266" y2="104.7266"/><text fill="#000000" font-family="sans-serif" font-size="13" lengthAdjust="spacing" textLength="70" x="88" y="99.6606">Insert Card</text><polygon fill="#181818" points="92,129.8594,82,133.8594,92,137.8594,88,133.8594" style="stroke:#181818;stroke-width:1.0;"/><line style="stroke:#181818;stroke-width:1.0;" x1="86" x2="268" y1="133.8594" y2="133.8594"/><text fill="#000000" font-family="sans-serif" font-size="13" lengthAdjust="spacing" textLength="59" x="98" y="128.7935">Enter PIN</text><polygon fill="#181818" points="257,158.9922,267,162.9922,257,166.9922,261,162.9922" style="stroke:#181818;stroke-width:1.0;"/><line style="stroke:#181818;stroke-width:1.0;" x1="81" x2="263" y1="162.9922" y2="162.9922"/><text fill="#000000" font-family="sans-serif" font-size="13" lengthAdjust="spacing" textLength="37" x="88" y="157.9263">{PIN}</text><polygon fill="#181818" points="431,188.125,441,192.125,431,196.125,435,192.125" style="stroke:#181818;stroke-width:1.0;"/><line style="stroke:#181818;stroke-width:1.0;" x1="269" x2="437" y1="192.125" y2="192.125"/><text fill="#000000" font-family="sans-serif" font-size="13" lengthAdjust="spacing" textLength="61" x="276" y="187.0591">Verify PIN</text><polygon fill="#181818" points="280,217.2578,270,221.2578,280,225.2578,276,221.2578" style="stroke:#181818;stroke-width:1.0;"/><line style="stroke:#181818;stroke-width:1.0;stroke-dasharray:2.0,2.0;" x1="274" x2="442" y1="221.2578" y2="221.2578"/><text fill="#000000" font-family="sans-serif" font-size="13" lengthAdjust="spacing" textLength="139" x="286" y="216.1919">PIN Verification Result</text><path d="M10,236.2578 L74,236.2578 L74,243.3906 L64,253.3906 L10,253.3906 L10,236.2578 " fill="#EEEEEE" style="stroke:#000000;stroke-width:1.5;"/><rect fill="none" height="669.0078" style="stroke:#000000;stroke-width:1.5;" width="477.5" x="10" y="236.2578"/><text fill="#000000" font-family="sans-serif" font-size="13" font-weight="bold" lengthAdjust="spacing" textLength="19" x="25" y="249.3247">alt</text><text fill="#000000" font-family="sans-serif" font-size="11" font-weight="bold" lengthAdjust="spacing" textLength="82" x="89" y="248.4683">[PIN Correct]</text><polygon fill="#181818" points="257,270.5234,267,274.5234,257,278.5234,261,274.5234" style="stroke:#181818;stroke-width:1.0;"/><line style="stroke:#181818;stroke-width:1.0;" x1="81" x2="263" y1="274.5234" y2="274.5234"/><text fill="#000000" font-family="sans-serif" font-size="13" lengthAdjust="spacing" textLength="150" x="88" y="269.4575">Check Account Balance</text><path d="M20,289.5234 L84,289.5234 L84,296.6563 L74,306.6563 L20,306.6563 L20,289.5234 " fill="#EEEEEE" style="stroke:#000000;stroke-width:1.5;"/><rect fill="none" height="179.6016" style="stroke:#000000;stroke-width:1.5;" width="457.5" x="20" y="289.5234"/><text fill="#000000" font-family="sans-serif" font-size="13" font-weight="bold" lengthAdjust="spacing" textLength="19" x="35" y="302.5903">alt</text><text fill="#000000" font-family="sans-serif" font-size="11" font-weight="bold" lengthAdjust="spacing" textLength="114" x="99" y="301.7339">[Balance Enquiry]</text><polygon fill="#181818" points="431,323.7891,441,327.7891,431,331.7891,435,327.7891" style="stroke:#181818;stroke-width:1.0;"/><line style="stroke:#181818;stroke-width:1.0;" x1="269" x2="437" y1="327.7891" y2="327.7891"/><text fill="#000000" font-family="sans-serif" font-size="13" lengthAdjust="spacing" textLength="150" x="276" y="322.7231">Check Account Balance</text><polygon fill="#181818" points="280,352.9219,270,356.9219,280,360.9219,276,356.9219" style="stroke:#181818;stroke-width:1.0;"/><line style="stroke:#181818;stroke-width:1.0;stroke-dasharray:2.0,2.0;" x1="274" x2="442" y1="356.9219" y2="356.9219"/><text fill="#000000" font-family="sans-serif" font-size="13" lengthAdjust="spacing" textLength="107" x="286" y="351.856">Account Balance</text><path d="M30,371.9219 L94,371.9219 L94,379.0547 L84,389.0547 L30,389.0547 L30,371.9219 " fill="#EEEEEE" style="stroke:#000000;stroke-width:1.5;"/><rect fill="none" height="90.2031" style="stroke:#000000;stroke-width:1.5;" width="271" x="30" y="371.9219"/><text fill="#000000" font-family="sans-serif" font-size="13" font-weight="bold" lengthAdjust="spacing" textLength="19" x="45" y="384.9888">alt</text><text fill="#000000" font-family="sans-serif" font-size="11" font-weight="bold" lengthAdjust="spacing" textLength="87" x="109" y="384.1323">[Balance &gt; 0]</text><polygon fill="#181818" points="92,406.1875,82,410.1875,92,414.1875,88,410.1875" style="stroke:#181818;stroke-width:1.0;"/><line style="stroke:#181818;stroke-width:1.0;stroke-dasharray:2.0,2.0;" x1="86" x2="268" y1="410.1875" y2="410.1875"/><text fill="#000000" font-family="sans-serif" font-size="13" lengthAdjust="spacing" textLength="103" x="98" y="405.1216">Withdraw Money</text><line style="stroke:#000000;stroke-width:1.0;stroke-dasharray:2.0,2.0;" x1="30" x2="301" y1="419.1875" y2="419.1875"/><text fill="#000000" font-family="sans-serif" font-size="11" font-weight="bold" lengthAdjust="spacing" textLength="87" x="35" y="429.3979">[Balance = 0]</text><polygon fill="#181818" points="92,450.125,82,454.125,92,458.125,88,454.125" style="stroke:#181818;stroke-width:1.0;"/><line style="stroke:#181818;stroke-width:1.0;stroke-dasharray:2.0,2.0;" x1="86" x2="268" y1="454.125" y2="454.125"/><text fill="#000000" font-family="sans-serif" font-size="13" lengthAdjust="spacing" textLength="99" x="98" y="449.0591">Account Closed</text><polygon fill="#181818" points="257,493.2578,267,497.2578,257,501.2578,261,497.2578" style="stroke:#181818;stroke-width:1.0;"/><line style="stroke:#181818;stroke-width:1.0;" x1="81" x2="263" y1="497.2578" y2="497.2578"/><text fill="#000000" font-family="sans-serif" font-size="13" lengthAdjust="spacing" textLength="101" x="88" y="492.1919">Select Withdraw</text><path d="M20,512.2578 L84,512.2578 L84,519.3906 L74,529.3906 L20,529.3906 L20,512.2578 " fill="#EEEEEE" style="stroke:#000000;stroke-width:1.5;"/><rect fill="none" height="208.7344" style="stroke:#000000;stroke-width:1.5;" width="457.5" x="20" y="512.2578"/><text fill="#000000" font-family="sans-serif" font-size="13" font-weight="bold" lengthAdjust="spacing" textLength="19" x="35" y="525.3247">alt</text><text fill="#000000" font-family="sans-serif" font-size="11" font-weight="bold" lengthAdjust="spacing" textLength="84" x="99" y="524.4683">[Withdrawal]</text><polygon fill="#181818" points="431,546.5234,441,550.5234,431,554.5234,435,550.5234" style="stroke:#181818;stroke-width:1.0;"/><line style="stroke:#181818;stroke-width:1.0;" x1="269" x2="437" y1="550.5234" y2="550.5234"/><text fill="#000000" font-family="sans-serif" font-size="13" lengthAdjust="spacing" textLength="150" x="276" y="545.4575">Check Account Balance</text><polygon fill="#181818" points="280,575.6563,270,579.6563,280,583.6563,276,579.6563" style="stroke:#181818;stroke-width:1.0;"/><line style="stroke:#181818;stroke-width:1.0;stroke-dasharray:2.0,2.0;" x1="274" x2="442" y1="579.6563" y2="579.6563"/><text fill="#000000" font-family="sans-serif" font-size="13" lengthAdjust="spacing" textLength="107" x="286" y="574.5903">Account Balance</text><polygon fill="#181818" points="257,604.7891,267,608.7891,257,612.7891,261,608.7891" style="stroke:#181818;stroke-width:1.0;"/><line style="stroke:#181818;stroke-width:1.0;" x1="81" x2="263" y1="608.7891" y2="608.7891"/><text fill="#000000" font-family="sans-serif" font-size="13" lengthAdjust="spacing" textLength="164" x="88" y="603.7231">Enter amount to withdraw</text><path d="M30,623.7891 L94,623.7891 L94,630.9219 L84,640.9219 L30,640.9219 L30,623.7891 " fill="#EEEEEE" style="stroke:#000000;stroke-width:1.5;"/><rect fill="none" height="90.2031" style="stroke:#000000;stroke-width:1.5;" width="320" x="30" y="623.7891"/><text fill="#000000" font-family="sans-serif" font-size="13" font-weight="bold" lengthAdjust="spacing" textLength="19" x="45" y="636.856">alt</text><text fill="#000000" font-family="sans-serif" font-size="11" font-weight="bold" lengthAdjust="spacing" textLength="236" x="109" y="635.9995">[Amount entered &gt; Account Balance]</text><polygon fill="#181818" points="92,658.0547,82,662.0547,92,666.0547,88,662.0547" style="stroke:#181818;stroke-width:1.0;"/><line style="stroke:#181818;stroke-width:1.0;stroke-dasharray:2.0,2.0;" x1="86" x2="268" y1="662.0547" y2="662.0547"/><text fill="#000000" font-family="sans-serif" font-size="13" lengthAdjust="spacing" textLength="102" x="98" y="656.9888">Dispatch Money</text><line style="stroke:#000000;stroke-width:1.0;stroke-dasharray:2.0,2.0;" x1="30" x2="350" y1="671.0547" y2="671.0547"/><text fill="#000000" font-family="sans-serif" font-size="11" font-weight="bold" lengthAdjust="spacing" textLength="236" x="35" y="681.2651">[Amount entered &lt; Account Balance]</text><polygon fill="#181818" points="92,701.9922,82,705.9922,92,709.9922,88,705.9922" style="stroke:#181818;stroke-width:1.0;"/><line style="stroke:#181818;stroke-width:1.0;stroke-dasharray:2.0,2.0;" x1="86" x2="268" y1="705.9922" y2="705.9922"/><text fill="#000000" font-family="sans-serif" font-size="13" lengthAdjust="spacing" textLength="99" x="98" y="700.9263">Account Closed</text><line style="stroke:#000000;stroke-width:1.0;stroke-dasharray:2.0,2.0;" x1="10" x2="487.5" y1="728.9922" y2="728.9922"/><text fill="#000000" font-family="sans-serif" font-size="11" font-weight="bold" lengthAdjust="spacing" textLength="92" x="15" y="739.2026">[PIN Incorrect]</text><polygon fill="#181818" points="431,759.9297,441,763.9297,431,767.9297,435,763.9297" style="stroke:#181818;stroke-width:1.0;"/><line style="stroke:#181818;stroke-width:1.0;" x1="269" x2="437" y1="763.9297" y2="763.9297"/><text fill="#000000" font-family="sans-serif" font-size="13" lengthAdjust="spacing" textLength="129" x="276" y="758.8638">Increment Attempts</text><polygon fill="#181818" points="280,789.0625,270,793.0625,280,797.0625,276,793.0625" style="stroke:#181818;stroke-width:1.0;"/><line style="stroke:#181818;stroke-width:1.0;stroke-dasharray:2.0,2.0;" x1="274" x2="442" y1="793.0625" y2="793.0625"/><text fill="#000000" font-family="sans-serif" font-size="13" lengthAdjust="spacing" textLength="102" x="286" y="787.9966">Attempts Count</text><path d="M30,808.0625 L94,808.0625 L94,815.1953 L84,825.1953 L30,825.1953 L30,808.0625 " fill="#EEEEEE" style="stroke:#000000;stroke-width:1.5;"/><rect fill="none" height="90.2031" style="stroke:#000000;stroke-width:1.5;" width="271" x="30" y="808.0625"/><text fill="#000000" font-family="sans-serif" font-size="13" font-weight="bold" lengthAdjust="spacing" textLength="19" x="45" y="821.1294">alt</text><text fill="#000000" font-family="sans-serif" font-size="11" font-weight="bold" lengthAdjust="spacing" textLength="115" x="109" y="820.2729">[Attempts &lt; Limit]</text><polygon fill="#181818" points="92,842.3281,82,846.3281,92,850.3281,88,846.3281" style="stroke:#181818;stroke-width:1.0;"/><line style="stroke:#181818;stroke-width:1.0;stroke-dasharray:2.0,2.0;" x1="86" x2="268" y1="846.3281" y2="846.3281"/><text fill="#000000" font-family="sans-serif" font-size="13" lengthAdjust="spacing" textLength="130" x="98" y="841.2622">Retry Authentication</text><line style="stroke:#000000;stroke-width:1.0;stroke-dasharray:2.0,2.0;" x1="30" x2="301" y1="855.3281" y2="855.3281"/><text fill="#000000" font-family="sans-serif" font-size="11" font-weight="bold" lengthAdjust="spacing" textLength="124" x="35" y="865.5386">[Attempts &gt;= Limit]</text><polygon fill="#181818" points="92,886.2656,82,890.2656,92,894.2656,88,890.2656" style="stroke:#181818;stroke-width:1.0;"/><line style="stroke:#181818;stroke-width:1.0;stroke-dasharray:2.0,2.0;" x1="86" x2="268" y1="890.2656" y2="890.2656"/><text fill="#000000" font-family="sans-serif" font-size="13" lengthAdjust="spacing" textLength="55" x="98" y="885.1997">Rejected</text><!--MD5=[7e4b252bc81bffe2682b879b855ed9fe]
@startuml
title ATM Transaction Sequence

participant Customer
participant ATM
participant Bank

Customer -> ATM: Insert Card
ATM -> Customer: Enter PIN
Customer -> ATM: {PIN}
ATM -> Bank: Verify PIN
Bank - -> ATM: PIN Verification Result

alt PIN Correct
      
    Customer -> ATM: Check Account Balance
    alt Balance Enquiry
    
    ATM -> Bank: Check Account Balance
    Bank - -> ATM: Account Balance
        alt Balance > 0
            ATM - -> Customer: Withdraw Money
        else Balance = 0
            ATM - -> Customer: Account Closed
        end
    end

    Customer -> ATM: Select Withdraw
    alt Withdrawal
    ATM -> Bank: Check Account Balance
    Bank - -> ATM: Account Balance
    Customer -> ATM : Enter amount to withdraw
        alt Amount entered > Account Balance
            ATM - -> Customer: Dispatch Money
        else Amount entered < Account Balance
            ATM - -> Customer: Account Closed
        end

    end

else PIN Incorrect
    ATM -> Bank: Increment Attempts
    Bank - -> ATM: Attempts Count

    alt Attempts < Limit
        ATM - -> Customer: Retry Authentication
    else Attempts >= Limit
        ATM - -> Customer: Rejected
    end

end
@enduml

PlantUML version 1.2022.7(Mon Aug 22 17:01:30 UTC 2022)
(GPL source distribution)
Java Runtime: OpenJDK Runtime Environment
JVM: OpenJDK 64-Bit Server VM
Default Encoding: UTF-8
Language: en
Country: null
--></g></svg>