<?xml version="1.0" encoding="UTF-8" standalone="no"?><svg xmlns="http://www.w3.org/2000/svg" xmlns:xlink="http://www.w3.org/1999/xlink" contentStyleType="text/css" height="513px" preserveAspectRatio="none" style="width:1844px;height:513px;background:#FFFFFF;" version="1.1" viewBox="0 0 1844 513" width="1844px" zoomAndPan="magnify"><defs/><g><rect fill="none" height="26.2969" id="_title" style="stroke:none;stroke-width:1.0;" width="550" x="645.5" y="15"/><text fill="#000000" font-family="sans-serif" font-size="14" font-weight="bold" lengthAdjust="spacing" textLength="540" x="650.5" y="32.9951">Stepwise Refinement Approach for Solving Transcendental Equation</text><ellipse cx="148.5" cy="85.9951" fill="#222222" rx="10" ry="10" style="stroke:#222222;stroke-width:1.0;"/><rect fill="#F1F1F1" height="33.9688" rx="12.5" ry="12.5" style="stroke:#181818;stroke-width:0.5;" width="255" x="21" y="115.9951"/><text fill="#000000" font-family="sans-serif" font-size="12" lengthAdjust="spacing" textLength="235" x="31" y="137.1338">Provide initial guess or approximation</text><line style="stroke:#000000;stroke-width:1.5;" x1="15" x2="15" y1="50.042" y2="501.8076"/><rect fill="#F1F1F1" height="33.9688" rx="12.5" ry="12.5" style="stroke:#181818;stroke-width:0.5;" width="245" x="286" y="169.9639"/><text fill="#000000" font-family="sans-serif" font-size="12" lengthAdjust="spacing" textLength="225" x="296" y="191.1025">Define the transcendental equation</text><line style="stroke:#000000;stroke-width:1.5;" x1="280" x2="280" y1="50.042" y2="501.8076"/><rect fill="#F1F1F1" height="33.9688" rx="12.5" ry="12.5" style="stroke:#181818;stroke-width:0.5;" width="187" x="541" y="223.9326"/><text fill="#000000" font-family="sans-serif" font-size="12" lengthAdjust="spacing" textLength="167" x="551" y="245.0713">Select root-finding method</text><line style="stroke:#000000;stroke-width:1.5;" x1="535" x2="535" y1="50.042" y2="501.8076"/><rect fill="#F1F1F1" height="33.9688" rx="12.5" ry="12.5" style="stroke:#181818;stroke-width:0.5;" width="187" x="771" y="277.9014"/><text fill="#000000" font-family="sans-serif" font-size="12" lengthAdjust="spacing" textLength="167" x="781" y="299.04">Implement chosen method</text><line style="stroke:#000000;stroke-width:1.5;" x1="732" x2="732" y1="50.042" y2="501.8076"/><rect fill="#F1F1F1" height="33.9688" rx="12.5" ry="12.5" style="stroke:#181818;stroke-width:0.5;" width="182" x="1030" y="331.8701"/><text fill="#000000" font-family="sans-serif" font-size="12" lengthAdjust="spacing" textLength="162" x="1040" y="353.0088">Test and validate solution</text><line style="stroke:#000000;stroke-width:1.5;" x1="995" x2="995" y1="50.042" y2="501.8076"/><polygon fill="#F1F1F1" points="1492.75,385.8389,1631.75,385.8389,1643.75,397.8389,1631.75,409.8389,1492.75,409.8389,1480.75,397.8389,1492.75,385.8389" style="stroke:#181818;stroke-width:0.5;"/><text fill="#000000" font-family="sans-serif" font-size="11" lengthAdjust="spacing" textLength="139" x="1492.75" y="401.647">Solution not satisfactory</text><text fill="#000000" font-family="sans-serif" font-size="11" lengthAdjust="spacing" textLength="20" x="1460.75" y="395.2446">yes</text><text fill="#000000" font-family="sans-serif" font-size="11" lengthAdjust="spacing" textLength="14" x="1643.75" y="395.2446">no</text><rect fill="#F1F1F1" height="33.9688" rx="12.5" ry="12.5" style="stroke:#181818;stroke-width:0.5;" width="328" x="1251" y="419.8389"/><text fill="#000000" font-family="sans-serif" font-size="12" lengthAdjust="spacing" textLength="308" x="1261" y="440.9775">Refine approximation or choose different method</text><ellipse cx="1415" cy="484.8076" fill="none" rx="11" ry="11" style="stroke:#222222;stroke-width:1.0;"/><ellipse cx="1415" cy="484.8076" fill="#222222" rx="6" ry="6" style="stroke:#111111;stroke-width:1.0;"/><rect fill="#F1F1F1" height="33.9688" rx="12.5" ry="12.5" style="stroke:#181818;stroke-width:0.5;" width="221" x="1599" y="419.8389"/><text fill="#000000" font-family="sans-serif" font-size="12" lengthAdjust="spacing" textLength="201" x="1609" y="440.9775">Document and optimize solution</text><ellipse cx="1709.5" cy="484.8076" fill="none" rx="11" ry="11" style="stroke:#222222;stroke-width:1.0;"/><ellipse cx="1709.5" cy="484.8076" fill="#222222" rx="6" ry="6" style="stroke:#111111;stroke-width:1.0;"/><line style="stroke:#000000;stroke-width:1.5;" x1="1245" x2="1245" y1="50.042" y2="501.8076"/><line style="stroke:#000000;stroke-width:1.5;" x1="1824" x2="1824" y1="50.042" y2="501.8076"/><line style="stroke:#181818;stroke-width:1.0;" x1="148.5" x2="148.5" y1="95.9951" y2="115.9951"/><polygon fill="#181818" points="144.5,105.9951,148.5,115.9951,152.5,105.9951,148.5,109.9951" style="stroke:#181818;stroke-width:1.0;"/><line style="stroke:#181818;stroke-width:1.0;" x1="1415" x2="1415" y1="453.8076" y2="473.8076"/><polygon fill="#181818" points="1411,463.8076,1415,473.8076,1419,463.8076,1415,467.8076" style="stroke:#181818;stroke-width:1.0;"/><line style="stroke:#181818;stroke-width:1.0;" x1="1709.5" x2="1709.5" y1="453.8076" y2="473.8076"/><polygon fill="#181818" points="1705.5,463.8076,1709.5,473.8076,1713.5,463.8076,1709.5,467.8076" style="stroke:#181818;stroke-width:1.0;"/><line style="stroke:#181818;stroke-width:1.0;" x1="1480.75" x2="1415" y1="397.8389" y2="397.8389"/><line style="stroke:#181818;stroke-width:1.0;" x1="1415" x2="1415" y1="397.8389" y2="419.8389"/><polygon fill="#181818" points="1411,409.8389,1415,419.8389,1419,409.8389,1415,413.8389" style="stroke:#181818;stroke-width:1.0;"/><line style="stroke:#181818;stroke-width:1.0;" x1="1643.75" x2="1709.5" y1="397.8389" y2="397.8389"/><line style="stroke:#181818;stroke-width:1.0;" x1="1709.5" x2="1709.5" y1="397.8389" y2="419.8389"/><polygon fill="#181818" points="1705.5,409.8389,1709.5,419.8389,1713.5,409.8389,1709.5,413.8389" style="stroke:#181818;stroke-width:1.0;"/><line style="stroke:#181818;stroke-width:1.0;" x1="148.5" x2="148.5" y1="149.9639" y2="154.9639"/><line style="stroke:#181818;stroke-width:1.0;" x1="148.5" x2="408.5" y1="154.9639" y2="154.9639"/><line style="stroke:#181818;stroke-width:1.0;" x1="408.5" x2="408.5" y1="154.9639" y2="169.9639"/><polygon fill="#181818" points="404.5,159.9639,408.5,169.9639,412.5,159.9639,408.5,163.9639" style="stroke:#181818;stroke-width:1.0;"/><line style="stroke:#181818;stroke-width:1.0;" x1="408.5" x2="408.5" y1="203.9326" y2="208.9326"/><line style="stroke:#181818;stroke-width:1.0;" x1="408.5" x2="634.5" y1="208.9326" y2="208.9326"/><line style="stroke:#181818;stroke-width:1.0;" x1="634.5" x2="634.5" y1="208.9326" y2="223.9326"/><polygon fill="#181818" points="630.5,213.9326,634.5,223.9326,638.5,213.9326,634.5,217.9326" style="stroke:#181818;stroke-width:1.0;"/><line style="stroke:#181818;stroke-width:1.0;" x1="634.5" x2="634.5" y1="257.9014" y2="262.9014"/><line style="stroke:#181818;stroke-width:1.0;" x1="634.5" x2="864.5" y1="262.9014" y2="262.9014"/><line style="stroke:#181818;stroke-width:1.0;" x1="864.5" x2="864.5" y1="262.9014" y2="277.9014"/><polygon fill="#181818" points="860.5,267.9014,864.5,277.9014,868.5,267.9014,864.5,271.9014" style="stroke:#181818;stroke-width:1.0;"/><line style="stroke:#181818;stroke-width:1.0;" x1="864.5" x2="864.5" y1="311.8701" y2="316.8701"/><line style="stroke:#181818;stroke-width:1.0;" x1="864.5" x2="1121" y1="316.8701" y2="316.8701"/><line style="stroke:#181818;stroke-width:1.0;" x1="1121" x2="1121" y1="316.8701" y2="331.8701"/><polygon fill="#181818" points="1117,321.8701,1121,331.8701,1125,321.8701,1121,325.8701" style="stroke:#181818;stroke-width:1.0;"/><line style="stroke:#181818;stroke-width:1.0;" x1="1121" x2="1121" y1="365.8389" y2="370.8389"/><line style="stroke:#181818;stroke-width:1.0;" x1="1121" x2="1562.25" y1="370.8389" y2="370.8389"/><line style="stroke:#181818;stroke-width:1.0;" x1="1562.25" x2="1562.25" y1="370.8389" y2="385.8389"/><polygon fill="#181818" points="1558.25,375.8389,1562.25,385.8389,1566.25,375.8389,1562.25,379.8389" style="stroke:#181818;stroke-width:1.0;"/><text fill="#000000" font-family="sans-serif" font-size="18" lengthAdjust="spacing" textLength="41" x="127" y="66.75">User</text><text fill="#000000" font-family="sans-serif" font-size="18" lengthAdjust="spacing" textLength="185" x="315" y="66.75">Initial Approximation</text><text fill="#000000" font-family="sans-serif" font-size="18" lengthAdjust="spacing" textLength="173" x="547" y="66.75">Formulate Equation</text><text fill="#000000" font-family="sans-serif" font-size="18" lengthAdjust="spacing" textLength="253" x="737" y="66.75">Choose Root-finding Method</text><text fill="#000000" font-family="sans-serif" font-size="18" lengthAdjust="spacing" textLength="240" x="1000" y="66.75">Implement Chosen Method</text><text fill="#000000" font-family="sans-serif" font-size="18" lengthAdjust="spacing" textLength="153" x="1458" y="66.75">Test and Validate</text><!--MD5=[180316a8fd5912f5c1c62934f9b7c214]
@startuml
title Stepwise Refinement Approach for Solving Transcendental Equation

|User|
  start
  :Provide initial guess or approximation;
|Initial Approximation|
  :Define the transcendental equation;
|Formulate Equation|
  :Select root-finding method;
|Choose Root-finding Method|
  :Implement chosen method;
|Implement Chosen Method|
  :Test and validate solution;
|Test and Validate|
  if (Solution not satisfactory) then (yes)
    :Refine approximation or choose different method;
    stop
  else (no)
    :Document and optimize solution;
    stop
  endif
@enduml

PlantUML version 1.2022.7(Mon Aug 22 17:01:30 UTC 2022)
(GPL source distribution)
Java Runtime: OpenJDK Runtime Environment
JVM: OpenJDK 64-Bit Server VM
Default Encoding: UTF-8
Language: en
Country: null
--></g></svg>